<svg width="66" height="58" viewBox="0 0 66 58" fill="none" xmlns="http://www.w3.org/2000/svg">
<rect x="13.8922" y="11.0569" width="36.6768" height="45.8718" rx="14" stroke="black" stroke-width="2"/>
<path d="M13.2949 25.2891V42.6965H9.70373C4.89679 42.6965 1 38.7997 1 33.9928C1 29.1859 4.89679 25.2891 9.70373 25.2891H13.2949Z" stroke="black" stroke-width="2"/>
<path d="M51.1665 42.6965L51.1665 25.2891L55.7577 25.2891C60.5646 25.2891 64.4614 29.1859 64.4614 33.9928C64.4614 38.7997 60.5646 42.6965 55.7577 42.6965L51.1665 42.6965Z" stroke="black" stroke-width="2"/>
<path d="M56.726 25.5828C56.726 12.0061 45.759 1 32.2307 1C18.7023 1 7.73535 12.0061 7.73535 25.5828" stroke="black" stroke-width="2"/>
<path d="M14.1815 30.7581C15.9864 27.8008 22.4841 25.5828 26.8159 25.5828C32.2307 25.5828 39.4504 29.2794 50.2799 29.2794" stroke="black" stroke-width="2"/>
<rect x="25.7844" y="47.2842" width="10.3138" height="7.76299" rx="3.88149" fill="black"/>
<path d="M10.3137 42.1089V42.1089C10.3137 47.1108 14.3686 51.1657 19.3705 51.1657H28.3629" stroke="black" stroke-width="2"/>
</svg>
