<svg width="75" height="69" viewBox="0 0 75 69" fill="none" xmlns="http://www.w3.org/2000/svg">
<path d="M37.7026 11.8648C35.8769 11.7458 34.1237 11.8276 32.3752 12.1021L38.1704 5.79659L43.7428 13.1529C41.7952 12.4584 39.7641 12.0252 37.7026 11.8648ZM17.137 21.8808C16.094 23.3917 15.2749 24.984 14.6693 26.6288L12.0761 18.4564L21.2687 17.3426C19.708 18.5866 18.3185 20.1254 17.137 21.8808ZM56.7474 24.6661C55.8786 23.0673 54.9158 21.5672 53.8016 20.1866L62.1796 22.0247L58.6089 30.5419C58.2515 28.5639 57.605 26.5931 56.7474 24.6661ZM15.491 44.7109C16.3128 46.3592 17.2756 47.8592 18.3691 49.1825L10.0197 47.334L13.5721 38.8559C13.9582 40.8235 14.576 42.8046 15.491 44.7109Z" fill="black"/>
<path d="M51.7481 32.6074C51.5397 30.7531 51.0216 29.0088 50.251 27.4204C47.3806 21.5032 41.0079 17.7488 34.1001 18.525C25.338 19.5097 19.0331 27.411 20.0177 36.1731C20.4393 39.925 22.1291 43.2263 24.6117 45.6978" stroke="black" stroke-width="2"/>
<mask id="path-3-inside-1" fill="white">
<path fill-rule="evenodd" clip-rule="evenodd" d="M50.0436 68.9562C49.6504 68.9852 49.2532 68.9999 48.8527 68.9999C48.7285 68.9999 48.6046 68.9985 48.4811 68.9957C48.3835 68.9985 48.2857 68.9999 48.1875 68.9999H30.892C25.3812 68.9999 20.9138 64.5326 20.9138 59.0218C20.9138 53.511 25.3812 49.0436 30.892 49.0436H33.3906C35.1629 42.1578 41.4136 37.0698 48.8527 37.0698C57.6699 37.0698 64.8177 44.2176 64.8177 53.0349C64.8177 53.4829 64.7993 53.9266 64.7631 54.3653H66.8133C70.8546 54.3653 74.1307 57.6414 74.1307 61.6826C74.1307 65.7239 70.8546 68.9999 66.8133 68.9999H50.8483C50.5763 68.9999 50.3078 68.9851 50.0436 68.9562Z"/>
</mask>
<path d="M50.0436 68.9562L50.2611 66.968L50.0791 66.9481L49.8965 66.9616L50.0436 68.9562ZM48.4811 68.9957L48.5267 66.9962L48.475 66.995L48.4233 66.9965L48.4811 68.9957ZM33.3906 49.0436V51.0436H34.941L35.3275 49.5421L33.3906 49.0436ZM64.7631 54.3653L62.7698 54.2009L62.5913 56.3653H64.7631V54.3653ZM48.8527 70.9999C49.3024 70.9999 49.7486 70.9834 50.1907 70.9508L49.8965 66.9616C49.5522 66.987 49.2041 66.9999 48.8527 66.9999V70.9999ZM48.4354 70.9952C48.5741 70.9983 48.7132 70.9999 48.8527 70.9999V66.9999C48.7437 66.9999 48.6351 66.9987 48.5267 66.9962L48.4354 70.9952ZM48.1875 70.9999C48.3049 70.9999 48.4221 70.9982 48.5389 70.9949L48.4233 66.9965C48.345 66.9988 48.2664 66.9999 48.1875 66.9999V70.9999ZM30.892 70.9999H48.1875V66.9999H30.892V70.9999ZM18.9138 59.0218C18.9138 65.6371 24.2766 70.9999 30.892 70.9999V66.9999C26.4858 66.9999 22.9138 63.428 22.9138 59.0218H18.9138ZM30.892 47.0436C24.2766 47.0436 18.9138 52.4064 18.9138 59.0218H22.9138C22.9138 54.6156 26.4858 51.0436 30.892 51.0436V47.0436ZM33.3906 47.0436H30.892V51.0436H33.3906V47.0436ZM48.8527 35.0698C40.4789 35.0698 33.4479 40.7971 31.4537 48.5451L35.3275 49.5421C36.8778 43.5185 42.3482 39.0698 48.8527 39.0698V35.0698ZM66.8177 53.0349C66.8177 43.1131 58.7745 35.0698 48.8527 35.0698V39.0698C56.5653 39.0698 62.8177 45.3222 62.8177 53.0349H66.8177ZM66.7563 54.5297C66.797 54.0364 66.8177 53.5378 66.8177 53.0349H62.8177C62.8177 53.428 62.8015 53.8168 62.7698 54.2009L66.7563 54.5297ZM64.7631 56.3653H66.8133V52.3653H64.7631V56.3653ZM66.8133 56.3653C69.75 56.3653 72.1307 58.7459 72.1307 61.6826H76.1307C76.1307 56.5368 71.9592 52.3653 66.8133 52.3653V56.3653ZM72.1307 61.6826C72.1307 64.6193 69.75 66.9999 66.8133 66.9999V70.9999C71.9592 70.9999 76.1307 66.8284 76.1307 61.6826H72.1307ZM66.8133 66.9999H50.8483V70.9999H66.8133V66.9999ZM50.8483 66.9999C50.6491 66.9999 50.4532 66.9891 50.2611 66.968L49.8261 70.9443C50.1624 70.9811 50.5035 70.9999 50.8483 70.9999V66.9999Z" fill="black" mask="url(#path-3-inside-1)"/>
</svg>
