<svg width="58" height="56" viewBox="0 0 58 56" fill="none" xmlns="http://www.w3.org/2000/svg">
<path d="M17.1935 7.15283L1 55.0001" stroke="black" stroke-width="2" stroke-linecap="round"/>
<path d="M42.9563 35.8611L48.1088 55" stroke="black" stroke-width="2" stroke-linecap="round"/>
<path d="M21.6101 7.15283L9.83301 55.0001" stroke="black" stroke-width="2" stroke-linecap="round"/>
<path d="M50.3169 35.125L56.9415 55" stroke="black" stroke-width="2" stroke-linecap="round"/>
<path d="M28.9707 7.15283V54.2639" stroke="black" stroke-width="2" stroke-linecap="round" stroke-dasharray="3 4"/>
<path d="M44.0841 28.5186L44.0849 28.52C44.9559 29.8266 46.8449 29.8267 47.7159 28.52L47.7168 28.5186C48.985 26.6094 50.0785 24.9914 51.0181 23.6011C52.7377 21.0569 53.9419 19.2752 54.7575 17.8667C55.4004 16.7566 55.8376 15.821 56.1079 14.8733C56.3801 13.9186 56.4694 12.9992 56.4694 11.9375C56.4694 5.93283 51.7728 1 45.9004 1C40.0281 1 35.3315 5.93283 35.3315 11.9375C35.3315 12.9992 35.4208 13.9186 35.693 14.8733C35.9633 15.821 36.4005 16.7566 37.0434 17.8667C37.859 19.2752 39.0632 21.0569 40.7828 23.6011C41.7224 24.9914 42.8159 26.6094 44.0841 28.5186ZM48.8875 11.9375C48.8875 13.708 47.5149 15.0781 45.9004 15.0781C44.286 15.0781 42.9134 13.708 42.9134 11.9375C42.9134 10.167 44.286 8.79687 45.9004 8.79687C47.5149 8.79687 48.8875 10.167 48.8875 11.9375Z" stroke="black" stroke-width="2"/>
</svg>
