<svg width="48" height="73" viewBox="0 0 48 73" fill="none" xmlns="http://www.w3.org/2000/svg">
<path d="M11.873 51.7776L9.5293 70.0588L23.5918 60.6838L37.6543 70.0588L34.8418 51.7776" stroke="black" stroke-width="2"/>
<path d="M39.4021 11.9203L39.4452 11.9418L39.4901 11.959L44.9677 14.0574C46.6227 14.7198 47.0839 16.2309 46.5476 17.2992L44.0165 22.3413C43.7215 22.9289 43.5938 23.6145 43.5938 24.2605C43.5938 24.8849 43.7131 25.5464 43.9875 26.1206L46.0782 31.951L46.0986 32.008L46.1258 32.0621C46.3687 32.5461 46.3422 33.1496 46.0203 33.7908C45.7024 34.424 45.1386 34.9924 44.5043 35.3199L39.0683 37.4023L39.0233 37.4195L38.9802 37.441C37.9433 37.9573 36.9422 38.9541 36.423 39.9883L36.4013 40.0316L36.3838 40.0767L34.3164 45.4305C33.5974 46.4569 32.6372 47 31.8325 47C31.6031 47 31.5143 46.9953 31.4414 46.9771C31.4019 46.9673 31.3524 46.9508 31.2726 46.8713L31.1465 46.7456L30.9846 46.6712L25.6431 44.2158C24.969 43.6376 24.2608 43.6382 23.8482 43.6386C23.8377 43.6386 23.8273 43.6386 23.8172 43.6386C23.5486 43.6386 23.3184 43.705 23.1509 43.7675C22.9954 43.8256 22.8491 43.8985 22.7526 43.9466L22.7386 43.9536C22.6237 44.0108 22.5658 44.0386 22.5181 44.0564C22.5157 44.0573 22.5135 44.0581 22.5114 44.0588H22.3328L22.134 44.1502L16.6498 46.6712L16.488 46.7456L16.3618 46.8713C16.282 46.9508 16.2326 46.9673 16.193 46.9771C16.1201 46.9953 16.0313 47 15.8019 47C15.0122 47 14.1333 46.4886 13.8188 45.2355L13.8038 45.176L13.7817 45.1187L11.6724 39.6566L11.655 39.6114L11.6333 39.5681C11.1141 38.5339 10.1129 37.5372 9.07605 37.0208L9.03295 36.9994L8.988 36.9821L3.51042 34.8838C1.85546 34.2214 1.39422 32.7102 1.93051 31.6419L4.46167 26.5999C4.75667 26.0123 4.88436 25.3266 4.88436 24.6807C4.88436 24.0403 4.75887 23.3609 4.46926 22.7766L1.95564 17.3523C1.26538 15.6048 2.08127 14.3167 2.96586 14.0964L3.01331 14.0846L3.05938 14.0682L8.96541 11.9674L9.02215 11.9472L9.07605 11.9203C9.60594 11.6565 10.1373 11.2623 10.5483 10.7846C10.9138 10.36 11.2519 9.78763 11.3092 9.12194L13.3247 3.50106C14.043 2.48081 14.9997 1.94116 15.8019 1.94116C16.0186 1.94116 16.2574 1.94293 16.4818 1.98018C16.6866 2.01418 16.7666 2.0607 16.7819 2.06964C16.7851 2.0715 16.7855 2.07173 16.7837 2.06988L16.9337 2.21937L17.1316 2.29516L22.4417 4.32931C23.1072 4.8834 23.8013 4.88274 24.2081 4.88236C24.2186 4.88235 24.2289 4.88234 24.2391 4.88234H25.5046H25.7235L25.9223 4.79094L31.4065 2.26993L31.5683 2.19554L31.6945 2.06985C31.6926 2.07173 31.693 2.0715 31.6962 2.06963C31.7116 2.06069 31.7915 2.01418 31.9963 1.98018C32.2207 1.94293 32.4596 1.94116 32.6763 1.94116C33.4659 1.94116 34.3448 2.45259 34.6593 3.70563L34.6743 3.76515L34.6964 3.82241L36.8057 9.28459L36.8231 9.32975L36.8449 9.37301C37.364 10.4072 38.3652 11.404 39.4021 11.9203ZM6.36469 24.4706C6.36469 34.2703 14.4097 42.2773 24.2391 42.2773C34.0685 42.2773 42.1134 34.2703 42.1134 24.4706C42.1134 14.6708 34.0685 6.66385 24.2391 6.66385C14.4097 6.66385 6.36469 14.6708 6.36469 24.4706Z" stroke="black" stroke-width="2"/>
<path d="M35.0001 24.4705C35.0001 27.3255 33.866 30.0635 31.8472 32.0823C29.8284 34.1011 27.0904 35.2352 24.2354 35.2352C21.3804 35.2352 18.6424 34.1011 16.6236 32.0823C14.6048 30.0635 13.4707 27.3255 13.4707 24.4705C13.4707 21.6155 14.6048 18.8775 16.6236 16.8587C18.6424 14.8399 21.3804 13.7058 24.2354 13.7058C27.0904 13.7058 29.8284 14.8399 31.8472 16.8587C33.866 18.8775 35.0001 21.6155 35.0001 24.4705Z" stroke="black" stroke-width="2"/>
</svg>
