<svg width="49" height="42" viewBox="0 0 49 42" fill="none" xmlns="http://www.w3.org/2000/svg">
<path d="M25.514 27.0797L31.6671 33.25L25.4968 39.4203L27.9375 41.8438L36.5312 33.25L27.9375 24.6562L25.514 27.0797Z" fill="#B40600"/>
<path d="M37.5453 27.0797L43.6984 33.25L37.5281 39.4203L39.9687 41.8438L48.5625 33.25L39.9687 24.6562L37.5453 27.0797Z" fill="#B40600"/>
<path d="M21.0625 31.5312H3.875V5.59531L23.5203 19.1906C23.808 19.3902 24.1498 19.4972 24.5 19.4972C24.8502 19.4972 25.192 19.3902 25.4797 19.1906L45.125 5.59531V21.2188H48.5625V4.03125C48.5625 3.11957 48.2003 2.24523 47.5557 1.60057C46.911 0.955914 46.0367 0.59375 45.125 0.59375H3.875C2.96332 0.59375 2.08898 0.955914 1.44432 1.60057C0.799664 2.24523 0.4375 3.11957 0.4375 4.03125V31.5312C0.4375 32.4429 0.799664 33.3173 1.44432 33.9619C2.08898 34.6066 2.96332 34.9688 3.875 34.9688H21.0625V31.5312ZM41.3438 4.03125L24.5 15.6844L7.65625 4.03125H41.3438Z" fill="#49495A"/>
</svg>
