<svg width="16" height="12" viewBox="0 0 16 12" fill="none" xmlns="http://www.w3.org/2000/svg">
<path d="M15.1888 0.0378418H0.811249C0.675684 0.0380007 0.545721 0.0919377 0.449881 0.187815C0.354041 0.283692 0.300155 0.413677 0.300049 0.549242V1.57804C0.300049 1.62544 0.351449 1.67984 0.393449 1.70184L7.95065 6.01844C7.97001 6.0295 7.99195 6.03523 8.01425 6.03504C8.03704 6.0351 8.05942 6.02903 8.07905 6.01744L15.4078 1.70604C15.449 1.68304 15.5582 1.62224 15.5992 1.59424C15.6488 1.56044 15.7 1.52984 15.7 1.46924V0.549042C15.6999 0.413512 15.646 0.283579 15.5501 0.187745C15.4543 0.0919103 15.3244 0.0380006 15.1888 0.0378418Z" fill="#49495A"/>
<path d="M15.6363 3.12922C15.6166 3.118 15.5943 3.11217 15.5717 3.11231C15.549 3.11245 15.5268 3.11856 15.5073 3.13002L11.3599 5.57022C11.3434 5.57985 11.3292 5.59308 11.3185 5.60892C11.3078 5.62477 11.3008 5.64282 11.298 5.66174C11.2952 5.68067 11.2967 5.69998 11.3024 5.71823C11.3081 5.73649 11.3178 5.75324 11.3309 5.76722L15.4789 10.2386C15.4908 10.2515 15.5052 10.2618 15.5213 10.2689C15.5374 10.2759 15.5547 10.2795 15.5723 10.2794C15.6062 10.2794 15.6386 10.2659 15.6626 10.2419C15.6866 10.218 15.7 10.1855 15.7001 10.1516V3.24022C15.7002 3.21774 15.6943 3.19563 15.6831 3.17614C15.6719 3.15665 15.6558 3.14046 15.6363 3.12922Z" fill="#49495A"/>
<path d="M10.1646 6.38956C10.1449 6.36812 10.1185 6.35408 10.0897 6.34978C10.0609 6.34549 10.0315 6.3512 10.0064 6.36596L8.34403 7.34416C8.24663 7.40044 8.13627 7.43041 8.02378 7.43115C7.9113 7.43189 7.80056 7.40336 7.70243 7.34836L6.23943 6.51256C6.21581 6.49911 6.18852 6.49352 6.16152 6.49661C6.13451 6.49971 6.1092 6.51131 6.08923 6.52976L0.53363 11.683C0.519065 11.6966 0.507883 11.7134 0.500973 11.7321C0.494064 11.7508 0.49162 11.7709 0.493834 11.7907C0.496049 11.8105 0.502861 11.8295 0.513729 11.8462C0.524596 11.8629 0.539218 11.8769 0.55643 11.887C0.64283 11.9378 0.72623 11.962 0.81103 11.962H15.0416C15.0665 11.962 15.0909 11.9547 15.1117 11.941C15.1325 11.9274 15.1488 11.9079 15.1586 11.885C15.1686 11.8622 15.1717 11.837 15.1675 11.8125C15.1633 11.788 15.152 11.7653 15.135 11.7472L10.1646 6.38956Z" fill="#49495A"/>
<path d="M4.86685 5.92028C4.88157 5.90668 4.89287 5.88981 4.89987 5.87102C4.90686 5.85224 4.90933 5.83208 4.90709 5.81217C4.90485 5.79225 4.89796 5.77314 4.88698 5.75638C4.87599 5.73962 4.86122 5.72568 4.84385 5.71568L0.490651 3.22928C0.471223 3.21825 0.44924 3.21252 0.4269 3.21265C0.40456 3.21278 0.382646 3.21877 0.363349 3.23003C0.344053 3.24129 0.32805 3.25742 0.316942 3.2768C0.305834 3.29618 0.300009 3.31814 0.300051 3.34048V9.86448C0.29991 9.8894 0.307079 9.91381 0.320669 9.9347C0.33426 9.95558 0.353677 9.97202 0.376516 9.98198C0.399355 9.99194 0.424614 9.99499 0.449166 9.99074C0.473718 9.98649 0.496486 9.97514 0.514651 9.95808L4.86685 5.92028Z" fill="#49495A"/>
</svg>
