<svg width="40" height="39" viewBox="0 0 40 39" fill="none" xmlns="http://www.w3.org/2000/svg">
<path fill-rule="evenodd" clip-rule="evenodd" d="M12.3206 4.55281C12.8438 4.72987 13.1243 5.29749 12.9472 5.82062L1.94724 38.3206C1.77018 38.8438 1.20256 39.1243 0.679432 38.9472C0.156299 38.7702 -0.124249 38.2026 0.0528118 37.6794L11.0528 5.17943C11.2299 4.6563 11.7975 4.37575 12.3206 4.55281Z" fill="white"/>
<path fill-rule="evenodd" clip-rule="evenodd" d="M29.24 24.0344C29.7733 23.8908 30.322 24.2067 30.4656 24.74L33.9656 37.74C34.1092 38.2733 33.7933 38.822 33.26 38.9656C32.7267 39.1092 32.178 38.7933 32.0344 38.26L28.5344 25.26C28.3908 24.7267 28.7067 24.178 29.24 24.0344Z" fill="white"/>
<path fill-rule="evenodd" clip-rule="evenodd" d="M15.239 4.52897C15.7753 4.66098 16.103 5.20273 15.971 5.73901L7.971 38.239C7.839 38.7753 7.29725 39.103 6.76097 38.971C6.22469 38.839 5.89697 38.2972 6.02897 37.761L14.029 5.26097C14.161 4.72469 14.7027 4.39697 15.239 4.52897Z" fill="white"/>
<path fill-rule="evenodd" clip-rule="evenodd" d="M34.1838 23.5513C34.7077 23.3767 35.2741 23.6599 35.4487 24.1838L39.9487 37.6838C40.1234 38.2077 39.8402 38.7741 39.3163 38.9487C38.7923 39.1234 38.226 38.8402 38.0513 38.3163L33.5513 24.8163C33.3767 24.2923 33.6599 23.726 34.1838 23.5513Z" fill="white"/>
<path fill-rule="evenodd" clip-rule="evenodd" d="M20 4.5C20.5523 4.5 21 4.94772 21 5.5V6.87143C21 7.42371 20.5523 7.87143 20 7.87143C19.4477 7.87143 19 7.42371 19 6.87143V5.5C19 4.94772 19.4477 4.5 20 4.5ZM20 9.52857C20.5523 9.52857 21 9.97629 21 10.5286V13.2714C21 13.8237 20.5523 14.2714 20 14.2714C19.4477 14.2714 19 13.8237 19 13.2714V10.5286C19 9.97629 19.4477 9.52857 20 9.52857ZM20 15.9286C20.5523 15.9286 21 16.3763 21 16.9286V19.6714C21 20.2237 20.5523 20.6714 20 20.6714C19.4477 20.6714 19 20.2237 19 19.6714V16.9286C19 16.3763 19.4477 15.9286 20 15.9286ZM20 22.3286C20.5523 22.3286 21 22.7763 21 23.3286V26.0714C21 26.6237 20.5523 27.0714 20 27.0714C19.4477 27.0714 19 26.6237 19 26.0714V23.3286C19 22.7763 19.4477 22.3286 20 22.3286ZM20 28.7286C20.5523 28.7286 21 29.1763 21 29.7286V32.4714C21 33.0237 20.5523 33.4714 20 33.4714C19.4477 33.4714 19 33.0237 19 32.4714V29.7286C19 29.1763 19.4477 28.7286 20 28.7286ZM20 35.1286C20.5523 35.1286 21 35.5763 21 36.1286V37.5C21 38.0523 20.5523 38.5 20 38.5C19.4477 38.5 19 38.0523 19 37.5V36.1286C19 35.5763 19.4477 35.1286 20 35.1286Z" fill="white"/>
<path fill-rule="evenodd" clip-rule="evenodd" d="M29.1678 20.7461L29.166 20.7434C28.3347 19.4919 27.6056 18.4131 26.9711 17.4741C25.777 15.7072 24.9175 14.4354 24.3407 13.4393C23.8746 12.6345 23.5209 11.8941 23.2962 11.1063C23.0676 10.3047 23 9.5504 23 8.75C23 3.98931 26.7351 0 31.5 0C36.2649 0 40 3.98931 40 8.75C40 9.5504 39.9324 10.3047 39.7038 11.1063C39.4791 11.8941 39.1254 12.6345 38.6593 13.4393C38.0825 14.4354 37.223 15.7072 36.0289 17.4741C35.3944 18.4131 34.6653 19.4919 33.834 20.7434L33.8322 20.7462C32.7177 22.418 30.2822 22.4179 29.1678 20.7461ZM30.832 19.6368C29.9547 18.3161 29.2048 17.2068 28.5648 16.26C25.6164 11.8981 25 10.9862 25 8.75C25 5.02207 27.9101 2 31.5 2C35.0899 2 38 5.02207 38 8.75C38 10.9862 37.3836 11.8981 34.4352 16.26C33.7952 17.2068 33.0453 18.3161 32.168 19.6368C31.8452 20.1211 31.1548 20.121 30.832 19.6368ZM31.5 9.5625C31.8207 9.5625 32.2083 9.27055 32.2083 8.75C32.2083 8.22945 31.8207 7.9375 31.5 7.9375C31.1793 7.9375 30.7917 8.22945 30.7917 8.75C30.7917 9.27055 31.1793 9.5625 31.5 9.5625ZM34.2083 8.75C34.2083 10.3033 32.9958 11.5625 31.5 11.5625C30.0042 11.5625 28.7917 10.3033 28.7917 8.75C28.7917 7.19669 30.0042 5.9375 31.5 5.9375C32.9958 5.9375 34.2083 7.19669 34.2083 8.75Z" fill="white"/>
</svg>
