<svg width="59" height="59" viewBox="0 0 59 59" fill="none" xmlns="http://www.w3.org/2000/svg">
<path fill-rule="evenodd" clip-rule="evenodd" d="M39.4108 42.153L41.9683 58.7771L29.5724 50.5131L17.239 58.7354L19.3618 42.1778L21.3455 42.4322L19.7808 54.6371L29.5724 48.1094L39.3015 54.5955L37.434 42.4571L39.4108 42.153Z" fill="white"/>
<path fill-rule="evenodd" clip-rule="evenodd" d="M18.8069 20.8235C18.8069 26.9831 23.8774 32.0448 30.0814 32.0448C36.2854 32.0448 41.3559 26.9831 41.3559 20.8235C41.3559 14.6639 36.2854 9.60223 30.0814 9.60223C23.8774 9.60223 18.8069 14.664 18.8069 20.8235ZM16.8069 20.8235C16.8069 28.0952 22.7804 34.0448 30.0814 34.0448C37.3824 34.0448 43.3559 28.0952 43.3559 20.8235C43.3559 13.5518 37.3824 7.60223 30.0814 7.60223C22.7804 7.60223 16.8069 13.5518 16.8069 20.8235Z" fill="white"/>
<path fill-rule="evenodd" clip-rule="evenodd" d="M35.2084 25.9535C36.5689 24.5929 37.3333 22.7476 37.3333 20.8235C37.3333 18.8994 36.5689 17.0541 35.2084 15.6935C33.8478 14.333 32.0025 13.5686 30.0784 13.5686C28.1543 13.5686 26.309 14.333 24.9484 15.6935C23.5878 17.0541 22.8235 18.8994 22.8235 20.8235C22.8235 22.7476 23.5878 24.5929 24.9484 25.9535C26.309 27.3141 28.1543 28.0784 30.0784 28.0784C32.0025 28.0784 33.8478 27.3141 35.2084 25.9535ZM36.6226 27.3677C38.3582 25.6321 39.3333 23.2781 39.3333 20.8235C39.3333 18.369 38.3582 16.0149 36.6226 14.2793C34.887 12.5437 32.5329 11.5686 30.0784 11.5686C27.6238 11.5686 25.2698 12.5437 23.5342 14.2793C21.7986 16.0149 20.8235 18.369 20.8235 20.8235C20.8235 23.2781 21.7986 25.6321 23.5342 27.3677C25.2698 29.1033 27.6238 30.0784 30.0784 30.0784C32.5329 30.0784 34.887 29.1033 36.6226 27.3677Z" fill="white"/>
<path fill-rule="evenodd" clip-rule="evenodd" d="M28.6405 37.625C28.8108 37.625 28.9811 37.5402 29.1515 37.4554C29.3218 37.3705 29.4921 37.2857 29.6624 37.2857C30.0031 37.2857 30.3438 37.2857 30.6844 37.625L35.1129 39.6607C35.4535 40 35.7942 40 36.1348 40C37.1568 40 38.1787 39.3214 38.86 38.3036L40.5633 33.8929C40.9039 33.2143 41.5852 32.5357 42.2665 32.1964L46.695 30.5C48.0576 29.8214 49.0796 28.125 48.3983 26.7679L46.695 22.0179C46.3544 21.3393 46.3544 20.3214 46.695 19.6429L48.7389 15.5714C49.4202 14.2143 48.7389 12.5179 47.0357 11.8393L42.6072 10.1429C41.9259 9.80357 41.2446 9.125 40.9039 8.44643L39.2007 4.03571C38.86 2.67857 37.8381 2 36.8161 2C36.4755 2 35.7942 2 35.4535 2.33929L31.0251 4.375H30.0031C29.6624 4.375 29.3218 4.375 28.9811 4.03571L24.5527 2.33929C24.212 2 23.5307 2 23.1901 2C22.1681 2 21.1462 2.67857 20.4649 3.69643L18.7616 8.44643C18.7616 9.125 18.0803 9.80357 17.399 10.1429L12.6299 11.8393C11.2673 12.1786 10.586 13.875 11.2673 15.5714L13.3112 19.9821C13.6518 20.6607 13.6518 21.6786 13.3112 22.3571L11.2673 26.4286C10.586 27.7857 11.2673 29.4821 12.9705 30.1607L17.399 31.8571C18.0803 32.1964 18.7616 32.875 19.1023 33.5536L20.8055 37.9643C21.1462 39.3214 22.1681 40 23.1901 40C23.5307 40 23.8714 40 24.212 39.6607L28.6405 37.625ZM13.7006 28.2987C13.3095 28.1401 13.1276 27.9082 13.0558 27.7448C12.9842 27.5818 12.9956 27.4436 13.0547 27.3259L15.0986 23.2544C15.4371 22.5802 15.5667 21.8353 15.5667 21.1696C15.5667 20.5149 15.4413 19.7833 15.115 19.1179L13.1076 14.7859C12.9546 14.3795 12.992 14.0653 13.0538 13.9012C13.0824 13.8254 13.1086 13.7912 13.1231 13.7775L13.208 13.7564L18.1828 11.9868L18.2906 11.9331C18.8473 11.6559 19.407 11.2433 19.8517 10.7265C20.2132 10.3065 20.6181 9.67413 20.731 8.87959L22.2532 4.63457C22.6573 4.11956 23.0584 4 23.1901 4C23.2684 4 23.3287 4.0002 23.3884 4.00243L23.4415 4.05536L27.9623 5.78713C28.7818 6.37869 29.617 6.37614 29.964 6.37508C29.9778 6.37504 29.9909 6.375 30.0031 6.375H31.4627L36.6125 4.00771L36.6178 4.00243C36.6775 4.0002 36.7378 4 36.8161 4C36.8825 4 36.9523 4.02107 37.0176 4.07311C37.0753 4.11913 37.1893 4.23736 37.2609 4.52262L37.2907 4.64168L39.0731 9.25721L39.1165 9.34373C39.6518 10.4101 40.648 11.4015 41.7156 11.9331L41.8018 11.9761L46.3055 13.7013C46.6967 13.8598 46.8786 14.0917 46.9504 14.2552C47.022 14.4182 47.0106 14.5564 46.9515 14.6741L44.9076 18.7456C44.5691 19.4198 44.4395 20.1647 44.4395 20.8304C44.4395 21.454 44.5533 22.1474 44.8461 22.7869L46.5565 27.5569L46.6109 27.6652C46.6127 27.6689 46.6131 27.6702 46.6135 27.6725C46.6141 27.6755 46.616 27.6871 46.6147 27.7102C46.6117 27.7595 46.5934 27.8562 46.5257 27.9911C46.3906 28.2602 46.1397 28.5208 45.8693 28.6746L41.4612 30.3632L41.375 30.4061C40.3073 30.9378 39.3112 31.9292 38.7759 32.9956L38.7324 33.0821L37.0849 37.3485C36.7603 37.769 36.4359 37.9325 36.2495 37.982L31.7692 35.9225C30.9289 35.2819 30.0579 35.2845 29.7015 35.2856C29.6877 35.2857 29.6747 35.2857 29.6624 35.2857C29.251 35.2857 28.9163 35.387 28.7072 35.4651C28.5629 35.519 28.4291 35.5818 28.3406 35.625H28.2028L23.0802 37.9798C23.0493 37.968 23.0185 37.9507 22.9886 37.9269C22.9309 37.8809 22.8169 37.7626 22.7453 37.4774L22.7155 37.3583L20.9331 32.7428L20.8897 32.6563C20.3544 31.59 19.3582 30.5985 18.2906 30.0669L18.2044 30.0239L13.7006 28.2987ZM13.1348 13.7699C13.1351 13.7706 13.1319 13.7735 13.1242 13.7766C13.1306 13.7707 13.1345 13.7692 13.1348 13.7699Z" fill="white"/>
</svg>
