<svg width="38" height="57" viewBox="0 0 38 57" fill="none" xmlns="http://www.w3.org/2000/svg">
<path fill-rule="evenodd" clip-rule="evenodd" d="M28.4108 40.153L30.9683 56.7771L18.5724 48.5131L6.23901 56.7354L8.36177 40.1778L10.3455 40.4322L8.7808 52.6371L18.5724 46.1094L28.3015 52.5955L26.434 40.4571L28.4108 40.153Z" fill="white"/>
<path fill-rule="evenodd" clip-rule="evenodd" d="M7.80688 18.8235C7.80688 24.9831 12.8774 30.0448 19.0814 30.0448C25.2854 30.0448 30.3559 24.9831 30.3559 18.8235C30.3559 12.6639 25.2854 7.60223 19.0814 7.60223C12.8774 7.60223 7.80688 12.664 7.80688 18.8235ZM5.80688 18.8235C5.80688 26.0952 11.7804 32.0448 19.0814 32.0448C26.3824 32.0448 32.3559 26.0952 32.3559 18.8235C32.3559 11.5518 26.3824 5.60223 19.0814 5.60223C11.7804 5.60223 5.80688 11.5518 5.80688 18.8235Z" fill="white"/>
<path fill-rule="evenodd" clip-rule="evenodd" d="M24.2084 23.9535C25.5689 22.593 26.3333 20.7477 26.3333 18.8235C26.3333 16.8994 25.5689 15.0541 24.2084 13.6935C22.8478 12.333 21.0025 11.5686 19.0784 11.5686C17.1543 11.5686 15.309 12.333 13.9484 13.6935C12.5878 15.0541 11.8235 16.8994 11.8235 18.8235C11.8235 20.7477 12.5878 22.593 13.9484 23.9535C15.309 25.3141 17.1543 26.0784 19.0784 26.0784C21.0025 26.0784 22.8478 25.3141 24.2084 23.9535ZM25.6226 25.3677C27.3582 23.6321 28.3333 21.2781 28.3333 18.8235C28.3333 16.369 27.3582 14.015 25.6226 12.2793C23.887 10.5437 21.5329 9.56863 19.0784 9.56863C16.6238 9.56863 14.2698 10.5437 12.5342 12.2793C10.7986 14.015 9.82349 16.369 9.82349 18.8235C9.82349 21.2781 10.7986 23.6321 12.5342 25.3677C14.2698 27.1034 16.6238 28.0784 19.0784 28.0784C21.5329 28.0784 23.887 27.1034 25.6226 25.3677Z" fill="white"/>
<path fill-rule="evenodd" clip-rule="evenodd" d="M17.6405 35.625C17.8108 35.625 17.9811 35.5402 18.1515 35.4554C18.3218 35.3705 18.4921 35.2857 18.6624 35.2857C19.0031 35.2857 19.3438 35.2857 19.6844 35.625L24.1129 37.6607C24.4535 38 24.7942 38 25.1348 38C26.1568 38 27.1787 37.3214 27.86 36.3036L29.5633 31.8929C29.9039 31.2143 30.5852 30.5357 31.2665 30.1964L35.695 28.5C37.0576 27.8214 38.0796 26.125 37.3983 24.7679L35.695 20.0179C35.3544 19.3393 35.3544 18.3214 35.695 17.6429L37.7389 13.5714C38.4202 12.2143 37.7389 10.5179 36.0357 9.83928L31.6072 8.14286C30.9259 7.80357 30.2446 7.125 29.9039 6.44643L28.2007 2.03571C27.86 0.678571 26.8381 0 25.8161 0C25.4755 0 24.7942 0 24.4535 0.339286L20.0251 2.375H19.0031C18.6624 2.375 18.3218 2.375 17.9811 2.03571L13.5527 0.339286C13.212 0 12.5307 0 12.1901 0C11.1681 0 10.1462 0.678571 9.46486 1.69643L7.76161 6.44643C7.76161 7.125 7.08031 7.80357 6.399 8.14286L1.62988 9.83928C0.267279 10.1786 -0.414024 11.875 0.267278 13.5714L2.31119 17.9821C2.65184 18.6607 2.65184 19.6786 2.31119 20.3571L0.267278 24.4286C-0.414024 25.7857 0.267278 27.4821 1.97053 28.1607L6.399 29.8571C7.08031 30.1964 7.76161 30.875 8.10226 31.5536L9.80552 35.9643C10.1462 37.3214 11.1681 38 12.1901 38C12.5307 38 12.8714 38 13.212 37.6607L17.6405 35.625ZM2.70064 26.2987C2.30947 26.1401 2.12764 25.9082 2.05583 25.7448C1.98424 25.5818 1.99558 25.4436 2.05469 25.3259L4.0986 21.2544C4.43708 20.5802 4.56667 19.8353 4.56667 19.1696C4.56667 18.5149 4.44127 17.7833 4.11498 17.1179L2.10759 12.7859C1.95459 12.3795 1.99203 12.0653 2.05384 11.9012C2.08237 11.8254 2.10861 11.7912 2.1231 11.7775L2.20802 11.7564L7.18275 9.98683L7.29056 9.93314C7.84727 9.65591 8.40696 9.24328 8.85172 8.72647C9.21318 8.30645 9.6181 7.67413 9.73098 6.87959L11.2532 2.63457C11.6573 2.11956 12.0584 2 12.1901 2C12.2684 2 12.3287 2.0002 12.3884 2.00243L12.4415 2.05536L16.9623 3.78713C17.7818 4.37869 18.617 4.37614 18.964 4.37508C18.9778 4.37504 18.9909 4.375 19.0031 4.375H20.4627L25.6125 2.00771L25.6178 2.00243C25.6775 2.0002 25.7378 2 25.8161 2C25.8825 2 25.9523 2.02107 26.0176 2.07311C26.0753 2.11913 26.1893 2.23736 26.2609 2.52262L26.2907 2.64168L28.0731 7.25721L28.1165 7.34373C28.6518 8.41005 29.648 9.40146 30.7156 9.93314L30.8018 9.97607L35.3055 11.7013C35.6967 11.8598 35.8786 12.0917 35.9504 12.2552C36.022 12.4182 36.0106 12.5564 35.9515 12.6741L33.9076 16.7456C33.5691 17.4198 33.4395 18.1647 33.4395 18.8304C33.4395 19.454 33.5533 20.1474 33.8461 20.7869L35.5565 25.5569L35.6109 25.6652C35.6127 25.6689 35.6131 25.6702 35.6135 25.6725C35.6141 25.6755 35.616 25.6871 35.6147 25.7102C35.6117 25.7595 35.5934 25.8562 35.5257 25.9911C35.3906 26.2602 35.1397 26.5208 34.8693 26.6746L30.4612 28.3632L30.375 28.4061C29.3073 28.9378 28.3112 29.9292 27.7759 30.9956L27.7324 31.0821L26.0849 35.3485C25.7603 35.769 25.4359 35.9325 25.2495 35.982L20.7692 33.9225C19.9289 33.2819 19.0579 33.2845 18.7015 33.2856C18.6877 33.2857 18.6747 33.2857 18.6624 33.2857C18.251 33.2857 17.9163 33.387 17.7072 33.4651C17.5629 33.519 17.4291 33.5818 17.3406 33.625H17.2028L12.0802 35.9798C12.0493 35.968 12.0185 35.9507 11.9886 35.9269C11.9309 35.8809 11.8169 35.7626 11.7453 35.4774L11.7155 35.3583L9.93311 30.7428L9.88967 30.6563C9.35437 29.59 8.35821 28.5985 7.29056 28.0669L7.20437 28.0239L2.70064 26.2987ZM2.1348 11.7699C2.13512 11.7706 2.13189 11.7735 2.12416 11.7766C2.13062 11.7707 2.13448 11.7692 2.1348 11.7699Z" fill="white"/>
</svg>
