<svg width="56" height="52" viewBox="0 0 56 52" fill="none" xmlns="http://www.w3.org/2000/svg">
<path d="M28.3389 8.91802C26.9666 8.8286 25.6488 8.89006 24.3345 9.09642L28.6904 4.35693L32.8789 9.88626C31.415 9.36421 29.8884 9.03863 28.3389 8.91802ZM12.8809 16.4465C12.0969 17.5822 11.4813 18.779 11.026 20.0153L9.07691 13.8726L15.9864 13.0354C14.8133 13.9704 13.769 15.127 12.8809 16.4465ZM42.6537 18.54C42.0007 17.3383 41.277 16.2108 40.4395 15.173L46.7368 16.5547L44.0529 22.9565C43.7843 21.4698 43.2983 19.9885 42.6537 18.54ZM11.6437 33.6066C12.2614 34.8455 12.985 35.973 13.807 36.9676L7.53126 35.5782L10.2014 29.2057C10.4915 30.6846 10.9559 32.1737 11.6437 33.6066Z" fill="white"/>
<path fill-rule="evenodd" clip-rule="evenodd" d="M25.7426 14.918C19.7055 15.5964 15.3614 21.0404 16.0398 27.0775C16.3304 29.6636 17.4939 31.9367 19.2046 33.6397L17.7935 35.0571C15.7722 33.0448 14.3955 30.355 14.0523 27.3009C13.2505 20.1661 18.3845 13.7322 25.5193 12.9305C31.1457 12.2982 36.3337 15.3569 38.6704 20.1739C39.2984 21.4686 39.7202 22.8893 39.8897 24.3974L37.9022 24.6208C37.7584 23.3414 37.4013 22.14 36.871 21.0468C34.8926 16.9685 30.5006 14.3833 25.7426 14.918Z" fill="white"/>
<path fill-rule="evenodd" clip-rule="evenodd" d="M37.6503 49.8224L37.8323 49.8423C37.9589 49.8561 38.0881 49.8633 38.2197 49.8633H50.2197C52.1527 49.8633 53.7197 48.2963 53.7197 46.3633C53.7197 44.4303 52.1527 42.8633 50.2197 42.8633H46.5069L46.6854 40.6988C46.7081 40.4237 46.7197 40.1451 46.7197 39.8633C46.7197 34.3404 42.2426 29.8633 36.7197 29.8633C32.0629 29.8633 28.1449 33.0483 27.0347 37.3618L26.6482 38.8633H23.2197C20.1822 38.8633 17.7197 41.3257 17.7197 44.3633C17.7197 47.4008 20.1822 49.8633 23.2197 49.8633H36.2197C36.2743 49.8633 36.3286 49.8625 36.3827 49.8609L36.4344 49.8594L36.4861 49.8606C36.5637 49.8624 36.6416 49.8633 36.7197 49.8633C36.9717 49.8633 37.2211 49.854 37.4678 49.8358L37.6503 49.8224ZM36.4405 51.8601C36.5333 51.8622 36.6264 51.8633 36.7197 51.8633C37.0208 51.8633 37.3193 51.8522 37.6149 51.8304C37.8135 51.8521 38.0153 51.8633 38.2197 51.8633H50.2197C53.2573 51.8633 55.7197 49.4008 55.7197 46.3633C55.7197 43.4818 53.5038 41.1178 50.6831 40.8825C50.5303 40.8698 50.3758 40.8633 50.2197 40.8633H48.6787C48.7059 40.5335 48.7197 40.2 48.7197 39.8633C48.7197 39.5265 48.7059 39.193 48.6787 38.8633C48.1705 32.7037 43.0104 27.8633 36.7197 27.8633C31.1282 27.8633 26.4299 31.6876 25.0978 36.8633H23.2197C19.0776 36.8633 15.7197 40.2211 15.7197 44.3633C15.7197 48.5054 19.0776 51.8633 23.2197 51.8633H36.2197C36.2936 51.8633 36.3671 51.8622 36.4405 51.8601Z" fill="white"/>
</svg>
