<svg width="50" height="45" viewBox="0 0 50 45" fill="none" xmlns="http://www.w3.org/2000/svg">
<path fill-rule="evenodd" clip-rule="evenodd" d="M38 30V23C38 15.8203 32.1797 10 25 10C17.8203 10 12 15.8203 12 23V30C12 37.1797 17.8203 43 25 43C32.1797 43 38 37.1797 38 30ZM25 8C16.7157 8 10 14.7157 10 23V30C10 38.2843 16.7157 45 25 45C33.2843 45 40 38.2843 40 30V23C40 14.7157 33.2843 8 25 8Z" fill="white"/>
<path fill-rule="evenodd" clip-rule="evenodd" d="M7.5 32H9.86364V21H7.5C4.46243 21 2 23.4624 2 26.5C2 29.5376 4.46243 32 7.5 32ZM7.5 19C3.35787 19 0 22.3579 0 26.5C0 30.6421 3.35786 34 7.5 34H11.8636V19H7.5Z" fill="white"/>
<path fill-rule="evenodd" clip-rule="evenodd" d="M42.5 21L40.1364 21L40.1364 32L42.5 32C45.5376 32 48 29.5376 48 26.5C48 23.4624 45.5376 21 42.5 21ZM42.5 34C46.6421 34 50 30.6421 50 26.5C50 22.3579 46.6421 19 42.5 19L38.1364 19L38.1364 34L42.5 34Z" fill="white"/>
<path fill-rule="evenodd" clip-rule="evenodd" d="M25 2C15.0589 2 7 10.0589 7 20H5C5 8.95431 13.9543 0 25 0C36.0457 0 45 8.95431 45 20H43C43 10.0589 34.9411 2 25 2Z" fill="white"/>
<path fill-rule="evenodd" clip-rule="evenodd" d="M15.5243 22.0761C13.7145 22.7729 12.3725 23.6737 11.8527 24.5223L10.1472 23.4777C11.0274 22.0406 12.9054 20.9413 14.8056 20.2097C16.7533 19.4597 18.9755 19 20.8 19C22.6737 19 24.802 19.5281 27.1212 20.1035C27.5926 20.2205 28.0718 20.3394 28.5584 20.4562C31.5047 21.1636 34.916 21.8571 39 21.8571V23.8571C34.684 23.8571 31.0952 23.1221 28.0915 22.4009C27.5565 22.2725 27.0456 22.1462 26.5563 22.0253C24.2386 21.4527 22.4063 21 20.8 21C19.2644 21 17.2867 21.3975 15.5243 22.0761Z" fill="white"/>
<rect x="20" y="36" width="8" height="6" rx="3" fill="white"/>
<path fill-rule="evenodd" clip-rule="evenodd" d="M9 32C9 35.3137 11.6863 38 15 38H22V40H15C10.5817 40 7 36.4183 7 32H9Z" fill="white"/>
</svg>
