<svg width="55" height="55" viewBox="0 0 55 55" fill="none" xmlns="http://www.w3.org/2000/svg">
<path d="M28.514 35.0797L34.6671 41.25L28.4968 47.4203L30.9375 49.8438L39.5312 41.25L30.9375 32.6562L28.514 35.0797Z" fill="#B40600"/>
<path d="M40.5453 35.0797L46.6984 41.25L40.5281 47.4203L42.9687 49.8438L51.5625 41.25L42.9687 32.6562L40.5453 35.0797Z" fill="#B40600"/>
<path d="M24.0625 39.5312H6.875V13.5953L26.5203 27.1906C26.808 27.3902 27.1498 27.4972 27.5 27.4972C27.8502 27.4972 28.192 27.3902 28.4797 27.1906L48.125 13.5953V29.2188H51.5625V12.0312C51.5625 11.1196 51.2003 10.2452 50.5557 9.60057C49.911 8.95591 49.0367 8.59375 48.125 8.59375H6.875C5.96332 8.59375 5.08898 8.95591 4.44432 9.60057C3.79966 10.2452 3.4375 11.1196 3.4375 12.0312V39.5312C3.4375 40.4429 3.79966 41.3173 4.44432 41.9619C5.08898 42.6066 5.96332 42.9688 6.875 42.9688H24.0625V39.5312ZM44.3438 12.0312L27.5 23.6844L10.6562 12.0312H44.3438Z" fill="white"/>
</svg>
