<svg width="114" height="29" viewBox="0 0 114 29" fill="none" xmlns="http://www.w3.org/2000/svg">
<g clip-path="url(#clip0)">
<path d="M31.7245 28.7896H29.4258C28.9144 28.7896 28.7046 28.596 28.6242 28.105C28.5121 27.4205 28.3857 26.7388 28.2736 26.0543C28.2449 25.8887 28.1615 25.8439 27.9863 25.8439C26.4691 25.8439 24.952 25.8439 23.4349 25.8439C23.2625 25.8439 23.1964 25.8972 23.1677 26.0655C23.0384 26.7697 22.8803 27.4682 22.7568 28.1724C22.7525 28.2598 22.7301 28.3455 22.691 28.4242C22.6519 28.503 22.5968 28.5732 22.5292 28.6306C22.4615 28.688 22.3826 28.7315 22.2973 28.7583C22.212 28.7851 22.122 28.7948 22.0327 28.7868C20.5845 28.7868 19.1364 28.7868 17.6882 28.7868C17.3089 28.7868 17.1624 28.6297 17.2285 28.2509C17.4152 27.1512 17.6221 26.0515 17.8232 24.9545C18.2064 22.8878 18.5895 20.8211 18.9726 18.7545C19.327 16.8318 19.6823 14.9091 20.0386 12.9864C20.4658 10.6673 20.892 8.34809 21.3172 6.02891C21.6276 4.30075 21.9446 2.57166 22.2683 0.841624C22.2736 0.765247 22.2948 0.690725 22.3306 0.622643C22.3664 0.554562 22.4162 0.494361 22.4767 0.445744C22.5373 0.397128 22.6074 0.361124 22.6827 0.339949C22.7581 0.318774 22.8371 0.312875 22.9148 0.322615H28.4632C28.5489 0.312502 28.6357 0.319685 28.7184 0.343716C28.801 0.367746 28.8778 0.408113 28.9438 0.462308C29.0098 0.516503 29.0637 0.58337 29.1021 0.658757C29.1406 0.734144 29.1627 0.816441 29.1672 0.900539C30.0829 5.37805 30.9975 9.85649 31.9113 14.3359C32.8499 18.9443 33.7856 23.5537 34.7185 28.164C34.7961 28.5483 34.6093 28.7727 34.1697 28.7784C33.3566 28.7952 32.5405 28.7896 31.7245 28.7896Z" fill="#009AC7"/>
<path d="M70.5608 0.33104H73.3192C73.4033 0.315143 73.4899 0.317784 73.5728 0.33877C73.6557 0.359755 73.7327 0.398555 73.7982 0.452333C73.8638 0.506111 73.9162 0.573508 73.9516 0.6496C73.9871 0.725691 74.0047 0.808553 74.0031 0.892131C74.4379 2.99248 74.8689 5.09377 75.2961 7.19599C75.7443 9.39734 76.1907 11.5987 76.6351 13.8C77.1523 16.3418 77.6714 18.8835 78.1924 21.4253C78.6426 23.6378 79.0918 25.8504 79.54 28.063C79.6521 28.6072 79.5056 28.798 78.9452 28.798H74.2588C73.7646 28.798 73.5807 28.6577 73.4859 28.178C73.348 27.4766 73.2129 26.7753 73.1037 26.0683C73.075 25.8831 73.0003 25.8551 72.8394 25.8579C71.3223 25.8579 69.8051 25.8579 68.288 25.8579C68.0265 25.8579 68.0265 26.0178 68.0007 26.1721C67.857 26.8622 67.7133 27.5524 67.5812 28.2425C67.5775 28.3247 67.5564 28.4053 67.5191 28.479C67.4818 28.5528 67.4291 28.6181 67.3645 28.6709C67.2999 28.7237 67.2247 28.7628 67.1438 28.7856C67.0629 28.8085 66.9779 28.8146 66.8944 28.8036C65.4578 28.8036 64.0211 28.8036 62.5844 28.8036C62.5034 28.8151 62.4208 28.8059 62.3446 28.777C62.2683 28.748 62.201 28.7003 62.1493 28.6385C62.0975 28.5766 62.063 28.5027 62.0491 28.424C62.0352 28.3453 62.0425 28.2644 62.0701 28.1892C62.4934 25.9037 62.9187 23.6182 63.3458 21.3327C63.7462 19.1669 64.1456 17.0011 64.544 14.8352C64.998 12.3739 65.452 9.91167 65.906 7.44848C66.3044 5.28267 66.701 3.11686 67.0956 0.951046C67.0934 0.862156 67.1111 0.773871 67.1474 0.692341C67.1838 0.610812 67.2379 0.537999 67.306 0.478977C67.3741 0.419955 67.4546 0.376142 67.5418 0.350593C67.629 0.325043 67.7209 0.31837 67.811 0.33104H70.5608Z" fill="#009AC7"/>
<path d="M110.572 28.7896H108.296C107.722 28.7896 107.529 28.6185 107.434 28.0854C107.319 27.4261 107.19 26.7669 107.095 26.1048C107.067 25.9028 107 25.8439 106.808 25.8467C105.314 25.8467 103.821 25.8467 102.328 25.8467C102.107 25.8467 102.041 25.9168 101.995 26.1272C101.866 26.8314 101.722 27.5299 101.584 28.2313C101.578 28.3128 101.555 28.3921 101.516 28.4647C101.478 28.5373 101.425 28.6017 101.361 28.654C101.296 28.7063 101.222 28.7455 101.142 28.7692C101.062 28.793 100.978 28.8009 100.895 28.7924C99.4809 28.7924 98.0672 28.7924 96.6536 28.7924C96.1766 28.7924 95.9927 28.5567 96.0789 28.0966C96.688 24.8105 97.2981 21.5253 97.9092 18.2411C98.5413 14.8016 99.1649 11.3593 99.7941 7.917C100.223 5.57538 100.658 3.2375 101.099 0.903356C101.102 0.821708 101.123 0.741695 101.16 0.668358C101.197 0.595021 101.249 0.529948 101.313 0.477238C101.377 0.424529 101.452 0.385325 101.532 0.362095C101.612 0.338865 101.697 0.332114 101.78 0.342265H107.328C107.408 0.331716 107.49 0.337355 107.568 0.358833C107.646 0.380311 107.718 0.417171 107.781 0.467134C107.844 0.517096 107.895 0.579099 107.933 0.649305C107.97 0.719512 107.992 0.79643 107.998 0.875302C108.367 2.65957 108.733 4.44478 109.095 6.23092C109.681 9.11119 110.266 11.9915 110.848 14.8717C111.413 17.6529 111.979 20.434 112.546 23.2152C112.877 24.8461 113.21 26.476 113.543 28.1051C113.641 28.5792 113.483 28.7924 112.989 28.798C112.178 28.7952 111.374 28.7896 110.572 28.7896Z" fill="#009AC7"/>
<path d="M48.3729 20.0113C49.1775 20.0113 49.982 20.0113 50.7865 20.0113C51.2118 20.0113 51.3612 20.1656 51.3612 20.5724C51.3612 21.111 51.3612 21.6497 51.3612 22.1883C51.3609 22.6238 51.5334 23.0425 51.8426 23.3564C52.1517 23.6702 52.5734 23.8549 53.0191 23.8716C53.2377 23.8691 53.4536 23.8243 53.6543 23.7398C53.8551 23.6553 54.0367 23.5329 54.1887 23.3795C54.3407 23.2261 54.4601 23.0449 54.54 22.8462C54.6199 22.6475 54.6586 22.4354 54.654 22.222C54.654 21.6609 54.6713 21.1223 54.6253 20.5752C54.5453 19.9667 54.2384 19.4084 53.7633 19.007C52.5508 17.8427 51.2894 16.7317 49.9992 15.6404C48.5855 14.4593 47.3012 13.1912 46.4162 11.5641C44.9191 8.81754 45.3013 5.11153 47.4592 2.71006C48.7258 1.26628 50.494 0.330141 52.4243 0.0813446C56.5562 -0.479747 60.4438 1.89648 61.1105 6.13833C61.2285 7.17396 61.266 8.21683 61.2225 9.25799C61.2225 9.57782 60.9898 9.68723 60.6823 9.68723C59.2457 9.68723 57.832 9.68723 56.4068 9.68723C55.3982 9.68723 55.3925 9.68723 55.3896 8.6941C55.3896 8.02079 55.3896 7.34748 55.3666 6.67697C55.3426 6.31219 55.1868 5.96757 54.9268 5.70451C54.6669 5.44145 54.3197 5.27705 53.9472 5.24058C53.7437 5.21718 53.5374 5.23338 53.3403 5.28824C53.1432 5.3431 52.9592 5.43555 52.7989 5.56023C52.6386 5.68491 52.5052 5.83937 52.4064 6.01467C52.3076 6.18998 52.2453 6.38266 52.2232 6.58159C52.1715 7.42322 52.0968 8.26486 52.3353 9.08686C52.4539 9.51948 52.6984 9.90926 53.0392 10.209C55.1138 12.0466 57.2056 13.8561 59.237 15.7498C59.9532 16.3987 60.5255 17.1841 60.9184 18.0575C61.3113 18.9309 61.5165 19.8738 61.5213 20.8277C61.6183 22.6562 61.0357 24.4575 59.8807 25.9C59.1875 26.7752 58.3141 27.4987 57.3169 28.024C56.3196 28.5493 55.2206 28.8645 54.0909 28.9495C52.1751 29.1782 50.2366 28.7636 48.5942 27.774C47.7526 27.2756 47.0373 26.5977 46.5019 25.7913C45.9665 24.9848 45.6248 24.0706 45.5024 23.117C45.3983 22.271 45.3618 21.4183 45.3933 20.5668C45.3933 20.1516 45.5312 20.0281 45.9679 20.0253C46.7638 20.0085 47.5684 20.0113 48.3729 20.0113Z" fill="#009AC7"/>
<path d="M9.34125 16.2717C9.55675 15.2028 9.778 14.1339 9.99062 13.065C10.39 11.0479 10.7865 9.02796 11.1859 7.01084C11.5853 4.99372 11.9991 2.95415 12.4042 0.925806C12.4933 0.479739 12.6686 0.328244 13.1226 0.328244H17.3291C17.8636 0.328244 18.0101 0.49096 17.9038 1.00716C17.717 2.03957 17.5188 3.07198 17.3291 4.09317C16.9077 6.41421 16.4844 8.739 16.0591 11.0675C15.6971 12.9921 15.3418 14.9138 14.9931 16.8327C14.5659 19.1519 14.1407 21.472 13.7174 23.7931C13.4453 25.2669 13.1705 26.7397 12.8927 28.2117C12.888 28.2904 12.8673 28.3675 12.8319 28.4385C12.7964 28.5094 12.747 28.5728 12.6863 28.6249C12.6257 28.6771 12.5551 28.717 12.4785 28.7424C12.402 28.7678 12.3211 28.7781 12.2405 28.7728C10.3785 28.7728 8.5166 28.7728 6.65467 28.7728C6.49163 28.7806 6.33178 28.7266 6.20859 28.6221C6.08541 28.5175 6.00844 28.3704 5.9938 28.2117C5.32527 24.9255 4.65482 21.6404 3.98246 18.3561C3.30435 15.027 2.62432 11.6978 1.94238 8.36868C1.43859 5.87744 0.933837 3.38339 0.428129 0.88653C0.403574 0.820711 0.396236 0.74995 0.406779 0.680661C0.417323 0.611373 0.445414 0.545751 0.488506 0.489745C0.531598 0.43374 0.588327 0.389123 0.653549 0.359941C0.71877 0.33076 0.790421 0.317936 0.862004 0.322633C2.54004 0.322633 4.21807 0.322633 5.89611 0.322633C6.26102 0.322633 6.43629 0.504988 6.51387 0.920195C6.68628 1.84319 6.84718 2.76619 7.01384 3.69199C7.42377 5.98124 7.83274 8.27049 8.24076 10.5597C8.57406 12.43 8.9045 14.3004 9.23206 16.1707C9.24059 16.2016 9.25214 16.2316 9.26654 16.2604L9.34125 16.2717Z" fill="#009AC7"/>
<path d="M81.8358 14.5322C81.8358 10.0342 81.8358 5.53514 81.8358 1.03519C81.8358 0.434824 81.945 0.328217 82.5484 0.328217H87.0624C87.7176 0.328217 87.8267 0.432018 87.8267 1.06325C87.8267 8.1199 87.8267 15.1766 87.8267 22.2332C87.8267 22.7747 87.7607 22.7045 88.2951 22.7045C90.0191 22.7045 91.7632 22.7045 93.4987 22.6849C94.1481 22.6849 94.2774 22.8111 94.2774 23.4508C94.2774 25.0106 94.2774 26.5705 94.2774 28.1303C94.2774 28.6549 94.1424 28.7896 93.6079 28.7896H82.4651C81.9766 28.7896 81.8301 28.6409 81.8301 28.1668C81.8339 23.62 81.8358 19.0752 81.8358 14.5322Z" fill="#009AC7"/>
<path d="M43.1634 14.5715C43.1634 19.0491 43.1634 23.5266 43.1634 28.0041C43.1634 28.6465 43.014 28.7896 42.3502 28.7896H37.6264C37.069 28.7896 36.8909 28.6129 36.8909 28.063C36.8909 19.0631 36.8909 10.0641 36.8909 1.06608C36.8909 0.476938 37.0403 0.331055 37.6379 0.331055H42.3962C43.0255 0.331055 43.1663 0.465717 43.1663 1.0717C43.1643 5.57165 43.1634 10.0716 43.1634 14.5715Z" fill="#009AC7"/>
<path d="M25.7968 12.8799C25.9706 13.2831 26.0811 13.7097 26.1244 14.1451C26.4951 16.1678 26.8485 18.1934 27.2134 20.2161C27.2852 20.6117 27.291 20.6145 26.8887 20.6145C26.1416 20.6145 25.3946 20.6145 24.6475 20.6145C24.3314 20.6145 24.2539 20.5724 24.3228 20.233C24.8314 17.7922 25.3084 15.3346 25.7968 12.8799Z" fill="#FEFEFE"/>
<path d="M70.7245 12.7957C70.9601 14.1002 71.1986 15.3823 71.4284 16.6672C71.6497 17.8988 71.8508 19.136 72.0835 20.3648C72.1295 20.6061 72.0548 20.6229 71.8566 20.6201C71.029 20.6201 70.2015 20.6201 69.374 20.6201C69.1441 20.6201 69.1154 20.5584 69.1556 20.3536C69.4429 18.9088 69.7303 17.4584 70.0176 16.0107C70.2092 15.0232 70.4007 14.0366 70.5923 13.051C70.6035 12.9531 70.6504 12.8625 70.7245 12.7957Z" fill="#FEFEFE"/>
<path d="M104.736 12.8602L105.535 17.377C105.71 18.3785 105.88 19.3801 106.07 20.3788C106.11 20.5948 106.047 20.6229 105.857 20.6229C105.02 20.6229 104.182 20.6229 103.343 20.6229C103.159 20.6229 103.09 20.6229 103.136 20.3816C103.63 17.9661 104.107 15.545 104.587 13.1267C104.587 13.0622 104.601 12.9949 104.61 12.9275C104.619 12.8602 104.659 12.8153 104.736 12.8602Z" fill="#FEFEFE"/>
<path d="M104.736 12.8602L104.616 12.9247C104.609 12.8827 104.615 12.8397 104.633 12.8009C104.651 12.7621 104.68 12.7291 104.716 12.7059L104.736 12.8602Z" fill="#87CDE4"/>
</g>
<defs>
<clipPath id="clip0">
<rect width="114" height="29" fill="white"/>
</clipPath>
</defs>
</svg>
