<svg width="69" height="49" viewBox="0 0 69 49" fill="none" xmlns="http://www.w3.org/2000/svg">
<path d="M15.1628 18.1875C18.148 18.1875 21.0662 19.0727 23.5484 20.7313C26.0305 22.3898 27.9651 24.7471 29.1076 27.5051C30.25 30.2631 30.5489 33.298 29.9665 36.2259C29.3841 39.1538 27.9465 41.8432 25.8356 43.9541C23.7247 46.065 21.0353 47.5026 18.1074 48.085C15.1795 48.6674 12.1446 48.3685 9.38662 47.2261C6.6286 46.0836 4.27128 44.149 2.61276 41.6669C0.954233 39.1847 0.069 36.2665 0.069 33.2812L0 31.125C0 23.1188 3.18046 15.4405 8.84171 9.77921C14.503 4.11796 22.1813 0.9375 30.1875 0.9375V9.5625C27.3546 9.55488 24.5483 10.1089 21.9309 11.1926C19.3135 12.2763 16.9369 13.8681 14.9385 15.876C14.1618 16.6512 13.4453 17.4845 12.7952 18.3686C13.5671 18.2479 14.3563 18.1832 15.1584 18.1832L15.1628 18.1875ZM53.9753 18.1875C56.9605 18.1875 59.8787 19.0727 62.3609 20.7313C64.843 22.3898 66.7776 24.7471 67.9201 27.5051C69.0625 30.2631 69.3614 33.298 68.779 36.2259C68.1966 39.1538 66.759 41.8432 64.6481 43.9541C62.5372 46.065 59.8478 47.5026 56.9199 48.085C53.992 48.6674 50.9571 48.3685 48.1991 47.2261C45.4411 46.0836 43.0838 44.149 41.4253 41.6669C39.7667 39.1847 38.8815 36.2665 38.8815 33.2812L38.8125 31.125C38.8125 23.1188 41.993 15.4405 47.6542 9.77921C53.3155 4.11796 60.9938 0.9375 69 0.9375V9.5625C66.1671 9.55488 63.3608 10.1089 60.7434 11.1926C58.126 12.2763 55.7494 13.8681 53.751 15.876C52.9743 16.6512 52.2578 17.4845 51.6077 18.3686C52.3796 18.2479 53.1688 18.1832 53.9753 18.1832V18.1875Z" fill="#E9EDF5"/>
</svg>
