<svg width="35" height="35" viewBox="0 0 35 35" fill="none" xmlns="http://www.w3.org/2000/svg">
<path d="M14.5834 26.2498C17.1719 26.2493 19.6858 25.3828 21.7249 23.7882L28.1357 30.199L30.1978 28.1369L23.787 21.7261C25.3824 19.6868 26.2495 17.1724 26.2501 14.5832C26.2501 8.15046 21.0161 2.9165 14.5834 2.9165C8.15071 2.9165 2.91675 8.15046 2.91675 14.5832C2.91675 21.0159 8.15071 26.2498 14.5834 26.2498ZM14.5834 5.83317C19.409 5.83317 23.3334 9.75755 23.3334 14.5832C23.3334 19.4088 19.409 23.3332 14.5834 23.3332C9.75779 23.3332 5.83341 19.4088 5.83341 14.5832C5.83341 9.75755 9.75779 5.83317 14.5834 5.83317Z" fill="#B40600"/>
</svg>
