<svg width="18" height="18" viewBox="0 0 18 18" fill="none" xmlns="http://www.w3.org/2000/svg">
<g clip-path="url(#clip0)">
<path d="M17.4864 12.7195L13.5489 11.032C13.3807 10.9603 13.1937 10.9452 13.0162 10.9889C12.8386 11.0327 12.6801 11.1329 12.5645 11.2745L10.8207 13.405C8.08409 12.1147 5.88171 9.91232 4.59141 7.17567L6.72187 5.43192C6.86379 5.31649 6.96424 5.15797 7.00801 4.98035C7.05178 4.80274 7.03649 4.61569 6.96445 4.44754L5.27695 0.510043C5.19789 0.32878 5.05806 0.180785 4.88157 0.0915772C4.70508 0.00236939 4.50299 -0.0224599 4.31016 0.0213707L0.653906 0.865121C0.467989 0.908053 0.302114 1.01273 0.183352 1.16208C0.0645909 1.31143 -4.28277e-05 1.49662 2.12914e-08 1.68743C2.12914e-08 10.705 7.30898 17.9999 16.3125 17.9999C16.5034 18 16.6886 17.9354 16.8381 17.8167C16.9875 17.6979 17.0922 17.532 17.1352 17.346L17.9789 13.6898C18.0225 13.496 17.9971 13.2931 17.9072 13.116C17.8173 12.9389 17.6685 12.7987 17.4864 12.7195Z" fill="#B40600"/>
</g>
<defs>
<clipPath id="clip0">
<rect width="18" height="18" fill="#B40600"/>
</clipPath>
</defs>
</svg>
