<svg width="64" height="64" viewBox="0 0 64 64" fill="none" xmlns="http://www.w3.org/2000/svg">
<path d="M0.583374 4.16667H26.9167C26.9167 3.29366 27.2635 2.45641 27.8808 1.83911C28.4981 1.2218 29.3354 0.875 30.2084 0.875H33.5C34.373 0.875 35.2103 1.2218 35.8276 1.83911C36.4449 2.45641 36.7917 3.29366 36.7917 4.16667H63.125V7.45833H59.8334V43.6667H40.9655L46.2585 63.4167H42.8484L37.5587 43.6667H26.1497L20.86 63.4167H17.4499L22.7429 43.6667H3.87504V7.45833H0.583374V4.16667ZM56.5417 40.375V7.45833H7.16671V40.375H56.5417Z" fill="black"/>
<path d="M23.5 25L24.2071 24.2929L23.5 23.5858L22.7929 24.2929L23.5 25ZM31 32.5L30.2929 33.2071L31.0232 33.9374L31.7295 33.1839L31 32.5ZM46.9995 16.4678C46.9817 15.9158 46.5198 15.4827 45.9678 15.5005L36.9724 15.7907C36.4204 15.8085 35.9874 16.2704 36.0052 16.8224C36.023 17.3744 36.4849 17.8075 37.0369 17.7897L45.0328 17.5317L45.2907 25.5276C45.3085 26.0796 45.7704 26.5126 46.3224 26.4948C46.8744 26.477 47.3075 26.0151 47.2897 25.4631L46.9995 16.4678ZM16.7071 33.2071L24.2071 25.7071L22.7929 24.2929L15.2929 31.7929L16.7071 33.2071ZM22.7929 25.7071L30.2929 33.2071L31.7071 31.7929L24.2071 24.2929L22.7929 25.7071ZM31.7295 33.1839L46.7295 17.1839L45.2705 15.8161L30.2705 31.8161L31.7295 33.1839Z" fill="black"/>
</svg>
