<svg width="57" height="84" viewBox="0 0 57 84" fill="none" xmlns="http://www.w3.org/2000/svg">
<path fill-rule="evenodd" clip-rule="evenodd" d="M38 2H3C2.44772 2 2 2.44772 2 3V24C2 24.5523 2.44772 25 3 25H38C38.5523 25 39 24.5523 39 24V3C39 2.44772 38.5523 2 38 2ZM3 0C1.34315 0 0 1.34315 0 3V24C0 25.6569 1.34315 27 3 27H38C39.6569 27 41 25.6569 41 24V3C41 1.34315 39.6569 0 38 0H3Z" fill="black"/>
<path fill-rule="evenodd" clip-rule="evenodd" d="M46 6H41V20H46C46.5523 20 47 19.5523 47 19V7C47 6.44772 46.5523 6 46 6ZM39 4V22H46C47.6569 22 49 20.6569 49 19V7C49 5.34315 47.6569 4 46 4H39Z" fill="black"/>
<path fill-rule="evenodd" clip-rule="evenodd" d="M55 11H49V15H55V11ZM47 9V17H57V9H47Z" fill="black"/>
<path fill-rule="evenodd" clip-rule="evenodd" d="M29 27H14V32H29V27ZM12 25V34H31V25H12Z" fill="black"/>
<path fill-rule="evenodd" clip-rule="evenodd" d="M20.6296 32C21.4393 31.9947 22.1723 32.478 22.4863 33.2243L41.8435 79.2243C42.2719 80.2424 41.7939 81.415 40.7758 81.8434C39.7577 82.2719 38.585 81.7938 38.1566 80.7757L20.6776 39.239L3.8536 80.7512C3.43872 81.7749 2.27252 82.2684 1.24883 81.8536C0.225138 81.4387 -0.268401 80.2725 0.146481 79.2488L18.7893 33.2488C19.0935 32.4984 19.82 32.0054 20.6296 32Z" fill="black"/>
<path fill-rule="evenodd" clip-rule="evenodd" d="M21 33C21.5523 33 22 33.4477 22 34L22 83C22 83.5523 21.5523 84 21 84C20.4477 84 20 83.5523 20 83L20 34C20 33.4477 20.4477 33 21 33Z" fill="black"/>
<path fill-rule="evenodd" clip-rule="evenodd" d="M32.2337 56.442L20.6395 62.5696L9.75464 56.4356L10.2456 55.5644L20.6549 61.4304L31.7665 55.5579L32.2337 56.442Z" fill="black"/>
<path fill-rule="evenodd" clip-rule="evenodd" d="M21.5 16C22.8807 16 24 14.8807 24 13.5C24 12.1193 22.8807 11 21.5 11C20.1193 11 19 12.1193 19 13.5C19 14.8807 20.1193 16 21.5 16ZM21.5 20C25.0899 20 28 17.0899 28 13.5C28 9.91015 25.0899 7 21.5 7C17.9101 7 15 9.91015 15 13.5C15 17.0899 17.9101 20 21.5 20Z" fill="black"/>
</svg>
