<svg width="81" height="77" viewBox="0 0 81 77" fill="none" xmlns="http://www.w3.org/2000/svg">
<mask id="path-1-outside-1" maskUnits="userSpaceOnUse" x="2" y="0.000305176" width="78" height="76" fill="black">
<rect fill="white" x="2" y="0.000305176" width="78" height="76"/>
<path d="M49.9375 2.00037C49.2127 2.00715 48.6308 2.57402 48.6378 3.28162V4.56287C45.6537 5.16423 43.3878 7.76446 43.3878 10.8465C43.3878 11.3499 43.4608 11.8348 43.575 12.3054C43.6432 12.5838 43.732 12.8554 43.8364 13.1187C43.9012 13.2829 43.9764 13.4392 44.0543 13.5967C44.134 13.7571 44.2206 13.9119 44.3132 14.0647C44.4528 14.2954 44.6049 14.514 44.7721 14.7253C44.8658 14.8436 44.9627 14.9591 45.0643 15.0706C45.2434 15.2672 45.4338 15.4496 45.636 15.6237C45.7438 15.7165 45.8478 15.8131 45.9616 15.8989L35.5923 44.9898C35.0164 46.6047 37.4978 47.448 38.0737 45.8331L42.9648 32.1097C44.7421 33.0705 46.6769 33.6391 48.6429 33.8139V35.7683C48.6826 37.4391 51.23 37.4391 51.2679 35.7683V33.8139C53.2364 33.639 55.1742 33.0702 56.9537 32.1072L60.1888 41.1836C58.8051 42.1375 57.2648 42.8727 55.6207 43.3532L56.3744 45.8031C60.7955 44.4954 64.5681 41.7409 67.1846 37.2973C71.5111 29.9819 69.3807 20.8961 62.4344 15.8589C62.1882 15.6737 61.8836 15.5795 61.5731 15.5936C60.3344 15.652 59.8616 17.2001 60.8656 17.9109C66.7591 22.1846 68.5636 29.8494 64.8928 36.0561C64.1784 37.3304 63.1325 38.6403 62.337 39.4018L53.9698 15.8914C54.1618 15.7461 54.3443 15.5906 54.5184 15.4259C54.5211 15.4235 54.5232 15.4213 54.5264 15.4182C54.5894 15.3582 54.6453 15.2929 54.7058 15.2305C54.9195 15.011 55.1176 14.777 55.298 14.5298C55.3377 14.4756 55.3807 14.4252 55.4185 14.3697C55.614 14.0834 55.779 13.7772 55.926 13.4613C55.9627 13.3821 56.0002 13.3045 56.0337 13.2236C56.1696 12.8966 56.2798 12.5584 56.3592 12.2076C56.3865 12.0861 56.4083 11.9636 56.4284 11.8397C56.4433 11.748 56.4612 11.6574 56.4721 11.5645C56.4875 11.4326 56.4934 11.2981 56.5004 11.1641C56.5053 11.0721 56.5172 10.9818 56.5182 10.8888H56.5133C56.5134 10.8743 56.5159 10.8608 56.5159 10.8462C56.5159 7.76065 54.2507 5.15756 51.2633 4.56009V3.2813C51.2703 2.56393 50.6724 1.99343 49.9375 2.00037ZM11.8776 2.0178C7.59514 2.0178 4.08216 5.38874 4.00002 9.55015C4.00598 21.5481 4.00259 33.5602 4.00259 45.5628C4.00259 49.7925 7.54408 53.2528 11.8776 53.2528H76.1926C76.9135 53.25 77.4971 52.6802 77.5 51.9765V49.4065H72.25V49.3993L11.8776 49.3967C8.26066 49.3963 5.32022 46.5819 5.32022 42.9929C5.32022 39.4139 8.26465 36.5892 11.8776 36.5892C15.1701 36.5892 17.7294 38.8973 18.3042 41.7167H19.7449V9.69804C19.7449 5.46827 16.2111 2.0178 11.8776 2.0178ZM51.2628 7.22789C52.7968 7.75272 53.8904 9.16015 53.8904 10.8464C53.8904 10.9623 53.8671 11.0711 53.8572 11.1842C53.8423 11.3431 53.8343 11.5048 53.8008 11.6572C53.4182 13.3892 51.8588 14.6676 49.9607 14.6676C47.7915 14.6676 46.0565 12.997 46.0232 10.889H46.0182C46.018 10.8744 46.0131 10.8614 46.0131 10.8463C46.0131 9.16338 47.1064 7.75762 48.6381 7.23031V9.62515C48.6759 11.296 51.2252 11.296 51.2631 9.62515L51.2628 7.22789ZM22.375 8.42155C22.3702 19.932 22.4308 31.4684 22.38 42.9878C22.38 43.7925 21.924 44.269 21.0624 44.269H17.13C16.4229 44.269 15.8252 43.9663 15.8252 43.0103C15.8251 43.004 15.8228 42.9986 15.8226 42.9928V42.9903C15.8226 42.7212 15.7943 42.4589 15.7432 42.207V42.2044C15.6917 41.9528 15.6154 41.7113 15.5175 41.4814V41.4788C15.4194 41.249 15.2984 41.0316 15.1586 40.8282V40.8257C15.0187 40.6224 14.8585 40.4347 14.6818 40.2627C13.973 39.5726 12.9855 39.1516 11.8774 39.1516C9.65984 39.1516 7.94498 40.8327 7.94498 42.9928C7.94498 45.1529 9.71467 46.8316 11.8774 46.8316H33.1721C32.8483 45.9974 32.8138 45.0004 33.1183 44.1465L42.9416 16.5771C41.59 15.017 40.7944 13.0929 40.7626 10.844C40.7626 10.005 40.8869 9.19361 41.1112 8.42161L22.375 8.42155ZM58.7687 8.42155C58.9967 9.14937 59.1481 9.94588 59.1481 10.8639C59.1481 12.9353 58.3533 15.0909 56.9819 16.557L63.1368 33.8188C65.4023 28.7208 63.6884 23.1575 59.2968 19.9728L59.325 19.9805C57.9312 18.9938 57.4332 17.1818 57.8639 15.7714C58.2945 14.361 59.728 13.1098 61.4476 13.0287C62.3697 12.9866 63.2759 13.2745 64.0059 13.8145C71.9499 19.5836 74.4424 30.1536 69.461 38.5762C67.2574 42.3187 64.219 45.0705 60.717 46.8342H74.8751V46.8444H77.5001V9.6982C77.4972 8.99452 76.9136 8.42476 76.1927 8.42195L58.7687 8.42155ZM51.5807 17.0249L56.077 29.6473C54.5842 30.5301 52.943 31.0447 51.268 31.2263V29.432C51.2828 28.7098 50.6826 28.1187 49.9426 28.1258C49.2127 28.1321 48.6287 28.7196 48.643 29.432V31.2213C46.9726 31.038 45.333 30.5268 43.8441 29.6473L48.343 17.0274C48.8624 17.1574 49.3963 17.2476 49.9555 17.2476C50.5192 17.2476 51.0578 17.1569 51.5807 17.0249ZM49.9247 20.203L47.7619 26.0989C48.4933 25.6515 49.1155 25.5671 49.8271 25.5708C50.5987 25.5748 51.391 25.7148 52.0601 26.1664L49.9247 20.203ZM44.3107 35.3278L40.5501 46.6714C40.5302 46.7268 40.4933 46.7768 40.4706 46.8315L53.9852 46.8341C53.9411 46.7373 53.8944 46.6428 53.8622 46.5388L53.1059 44.0888C52.692 42.7334 53.4816 41.3086 54.8696 40.9032C55.6195 40.684 56.2608 40.2509 56.9512 39.9098L55.408 35.563C54.9436 35.7145 54.4384 35.876 53.9032 35.9909C53.8358 36.9461 53.3532 37.9751 52.5727 38.641C51.7923 39.307 50.8604 39.5869 49.958 39.5869C49.0556 39.5869 48.121 39.3063 47.3407 38.641C46.5604 37.9758 46.1284 37.0349 46.0231 36.1211C45.7074 36.0581 44.5516 35.3633 44.3107 35.3278ZM5.3074 62C4.58653 62.0028 4.0029 62.5725 4.00002 63.2762V72.4665C3.99584 73.1751 4.58152 73.7525 5.3074 73.7553H76.1926C76.9185 73.7525 77.5042 73.1751 77.5 72.4665V63.2762C77.4971 62.5725 76.9135 62.0028 76.1926 62H67V65.8437H64.3801V62H59.125V67.125H56.5026V62H51.25V65.8437H48.625V62H43.375V67.4978H40.7551V62H35.5V65.8487H32.8801V62H27.625V67.125H25.0026V62H19.75V65.8437H17.125V62H11.875V67.125H9.24746V62H5.3074ZM72.25 64.7815C72.9749 64.7815 73.5625 65.3552 73.5625 66.0628C73.5625 66.7704 72.9749 67.344 72.25 67.344C71.5251 67.344 70.9375 66.7704 70.9375 66.0628C70.9375 65.3552 71.5251 64.7815 72.25 64.7815Z"/>
</mask>
<path d="M49.9375 2.00037C49.2127 2.00715 48.6308 2.57402 48.6378 3.28162V4.56287C45.6537 5.16423 43.3878 7.76446 43.3878 10.8465C43.3878 11.3499 43.4608 11.8348 43.575 12.3054C43.6432 12.5838 43.732 12.8554 43.8364 13.1187C43.9012 13.2829 43.9764 13.4392 44.0543 13.5967C44.134 13.7571 44.2206 13.9119 44.3132 14.0647C44.4528 14.2954 44.6049 14.514 44.7721 14.7253C44.8658 14.8436 44.9627 14.9591 45.0643 15.0706C45.2434 15.2672 45.4338 15.4496 45.636 15.6237C45.7438 15.7165 45.8478 15.8131 45.9616 15.8989L35.5923 44.9898C35.0164 46.6047 37.4978 47.448 38.0737 45.8331L42.9648 32.1097C44.7421 33.0705 46.6769 33.6391 48.6429 33.8139V35.7683C48.6826 37.4391 51.23 37.4391 51.2679 35.7683V33.8139C53.2364 33.639 55.1742 33.0702 56.9537 32.1072L60.1888 41.1836C58.8051 42.1375 57.2648 42.8727 55.6207 43.3532L56.3744 45.8031C60.7955 44.4954 64.5681 41.7409 67.1846 37.2973C71.5111 29.9819 69.3807 20.8961 62.4344 15.8589C62.1882 15.6737 61.8836 15.5795 61.5731 15.5936C60.3344 15.652 59.8616 17.2001 60.8656 17.9109C66.7591 22.1846 68.5636 29.8494 64.8928 36.0561C64.1784 37.3304 63.1325 38.6403 62.337 39.4018L53.9698 15.8914C54.1618 15.7461 54.3443 15.5906 54.5184 15.4259C54.5211 15.4235 54.5232 15.4213 54.5264 15.4182C54.5894 15.3582 54.6453 15.2929 54.7058 15.2305C54.9195 15.011 55.1176 14.777 55.298 14.5298C55.3377 14.4756 55.3807 14.4252 55.4185 14.3697C55.614 14.0834 55.779 13.7772 55.926 13.4613C55.9627 13.3821 56.0002 13.3045 56.0337 13.2236C56.1696 12.8966 56.2798 12.5584 56.3592 12.2076C56.3865 12.0861 56.4083 11.9636 56.4284 11.8397C56.4433 11.748 56.4612 11.6574 56.4721 11.5645C56.4875 11.4326 56.4934 11.2981 56.5004 11.1641C56.5053 11.0721 56.5172 10.9818 56.5182 10.8888H56.5133C56.5134 10.8743 56.5159 10.8608 56.5159 10.8462C56.5159 7.76065 54.2507 5.15756 51.2633 4.56009V3.2813C51.2703 2.56393 50.6724 1.99343 49.9375 2.00037ZM11.8776 2.0178C7.59514 2.0178 4.08216 5.38874 4.00002 9.55015C4.00598 21.5481 4.00259 33.5602 4.00259 45.5628C4.00259 49.7925 7.54408 53.2528 11.8776 53.2528H76.1926C76.9135 53.25 77.4971 52.6802 77.5 51.9765V49.4065H72.25V49.3993L11.8776 49.3967C8.26066 49.3963 5.32022 46.5819 5.32022 42.9929C5.32022 39.4139 8.26465 36.5892 11.8776 36.5892C15.1701 36.5892 17.7294 38.8973 18.3042 41.7167H19.7449V9.69804C19.7449 5.46827 16.2111 2.0178 11.8776 2.0178ZM51.2628 7.22789C52.7968 7.75272 53.8904 9.16015 53.8904 10.8464C53.8904 10.9623 53.8671 11.0711 53.8572 11.1842C53.8423 11.3431 53.8343 11.5048 53.8008 11.6572C53.4182 13.3892 51.8588 14.6676 49.9607 14.6676C47.7915 14.6676 46.0565 12.997 46.0232 10.889H46.0182C46.018 10.8744 46.0131 10.8614 46.0131 10.8463C46.0131 9.16338 47.1064 7.75762 48.6381 7.23031V9.62515C48.6759 11.296 51.2252 11.296 51.2631 9.62515L51.2628 7.22789ZM22.375 8.42155C22.3702 19.932 22.4308 31.4684 22.38 42.9878C22.38 43.7925 21.924 44.269 21.0624 44.269H17.13C16.4229 44.269 15.8252 43.9663 15.8252 43.0103C15.8251 43.004 15.8228 42.9986 15.8226 42.9928V42.9903C15.8226 42.7212 15.7943 42.4589 15.7432 42.207V42.2044C15.6917 41.9528 15.6154 41.7113 15.5175 41.4814V41.4788C15.4194 41.249 15.2984 41.0316 15.1586 40.8282V40.8257C15.0187 40.6224 14.8585 40.4347 14.6818 40.2627C13.973 39.5726 12.9855 39.1516 11.8774 39.1516C9.65984 39.1516 7.94498 40.8327 7.94498 42.9928C7.94498 45.1529 9.71467 46.8316 11.8774 46.8316H33.1721C32.8483 45.9974 32.8138 45.0004 33.1183 44.1465L42.9416 16.5771C41.59 15.017 40.7944 13.0929 40.7626 10.844C40.7626 10.005 40.8869 9.19361 41.1112 8.42161L22.375 8.42155ZM58.7687 8.42155C58.9967 9.14937 59.1481 9.94588 59.1481 10.8639C59.1481 12.9353 58.3533 15.0909 56.9819 16.557L63.1368 33.8188C65.4023 28.7208 63.6884 23.1575 59.2968 19.9728L59.325 19.9805C57.9312 18.9938 57.4332 17.1818 57.8639 15.7714C58.2945 14.361 59.728 13.1098 61.4476 13.0287C62.3697 12.9866 63.2759 13.2745 64.0059 13.8145C71.9499 19.5836 74.4424 30.1536 69.461 38.5762C67.2574 42.3187 64.219 45.0705 60.717 46.8342H74.8751V46.8444H77.5001V9.6982C77.4972 8.99452 76.9136 8.42476 76.1927 8.42195L58.7687 8.42155ZM51.5807 17.0249L56.077 29.6473C54.5842 30.5301 52.943 31.0447 51.268 31.2263V29.432C51.2828 28.7098 50.6826 28.1187 49.9426 28.1258C49.2127 28.1321 48.6287 28.7196 48.643 29.432V31.2213C46.9726 31.038 45.333 30.5268 43.8441 29.6473L48.343 17.0274C48.8624 17.1574 49.3963 17.2476 49.9555 17.2476C50.5192 17.2476 51.0578 17.1569 51.5807 17.0249ZM49.9247 20.203L47.7619 26.0989C48.4933 25.6515 49.1155 25.5671 49.8271 25.5708C50.5987 25.5748 51.391 25.7148 52.0601 26.1664L49.9247 20.203ZM44.3107 35.3278L40.5501 46.6714C40.5302 46.7268 40.4933 46.7768 40.4706 46.8315L53.9852 46.8341C53.9411 46.7373 53.8944 46.6428 53.8622 46.5388L53.1059 44.0888C52.692 42.7334 53.4816 41.3086 54.8696 40.9032C55.6195 40.684 56.2608 40.2509 56.9512 39.9098L55.408 35.563C54.9436 35.7145 54.4384 35.876 53.9032 35.9909C53.8358 36.9461 53.3532 37.9751 52.5727 38.641C51.7923 39.307 50.8604 39.5869 49.958 39.5869C49.0556 39.5869 48.121 39.3063 47.3407 38.641C46.5604 37.9758 46.1284 37.0349 46.0231 36.1211C45.7074 36.0581 44.5516 35.3633 44.3107 35.3278ZM5.3074 62C4.58653 62.0028 4.0029 62.5725 4.00002 63.2762V72.4665C3.99584 73.1751 4.58152 73.7525 5.3074 73.7553H76.1926C76.9185 73.7525 77.5042 73.1751 77.5 72.4665V63.2762C77.4971 62.5725 76.9135 62.0028 76.1926 62H67V65.8437H64.3801V62H59.125V67.125H56.5026V62H51.25V65.8437H48.625V62H43.375V67.4978H40.7551V62H35.5V65.8487H32.8801V62H27.625V67.125H25.0026V62H19.75V65.8437H17.125V62H11.875V67.125H9.24746V62H5.3074ZM72.25 64.7815C72.9749 64.7815 73.5625 65.3552 73.5625 66.0628C73.5625 66.7704 72.9749 67.344 72.25 67.344C71.5251 67.344 70.9375 66.7704 70.9375 66.0628C70.9375 65.3552 71.5251 64.7815 72.25 64.7815Z" stroke="black" stroke-width="4" mask="url(#path-1-outside-1)"/>
<rect x="2" y="60" width="77" height="15" rx="3" stroke="black" stroke-width="4"/>
</svg>
