<svg width="85" height="77" viewBox="0 0 85 77" fill="none" xmlns="http://www.w3.org/2000/svg">
<path d="M78.9999 6H26.9999C26.2043 6 25.4412 6.31607 24.8786 6.87868C24.316 7.44129 23.9999 8.20435 23.9999 9V44.87C23.9865 45.6818 24.2941 46.4661 24.8559 47.0522C25.4177 47.6384 26.1883 47.979 26.9999 48H45.9999V52H43.9999C43.2043 52 42.4412 52.3161 41.8786 52.8787C41.316 53.4413 40.9999 54.2043 40.9999 55V58H64.9999V55C64.9999 54.2043 64.6839 53.4413 64.1213 52.8787C63.5586 52.3161 62.7956 52 61.9999 52H59.9999V48H78.9999C79.8116 47.979 80.5821 47.6384 81.1439 47.0522C81.7057 46.4661 82.0134 45.6818 81.9999 44.87V9C81.9999 8.20435 81.6839 7.44129 81.1213 6.87868C80.5586 6.31607 79.7956 6 78.9999 6ZM25.9999 9C25.9999 8.73478 26.1053 8.48043 26.2928 8.29289C26.4804 8.10536 26.7347 8 26.9999 8H78.9999C79.2652 8 79.5195 8.10536 79.707 8.29289C79.8946 8.48043 79.9999 8.73478 79.9999 9V35C79.9999 35.2652 79.8946 35.5196 79.707 35.7071C79.5195 35.8946 79.2652 36 78.9999 36H26.9999C26.7347 36 26.4804 35.8946 26.2928 35.7071C26.1053 35.5196 25.9999 35.2652 25.9999 35V9ZM61.9999 54C62.2652 54 62.5195 54.1054 62.707 54.2929C62.8946 54.4804 62.9999 54.7348 62.9999 55V56H42.9999V55C42.9999 54.7348 43.1053 54.4804 43.2928 54.2929C43.4804 54.1054 43.7347 54 43.9999 54H61.9999ZM57.9999 52H47.9999V48H57.9999V52ZM78.9999 46H26.9999C26.7187 45.9795 26.4567 45.8498 26.2699 45.6386C26.083 45.4275 25.9861 45.1516 25.9999 44.87V37.87C26.3235 37.9694 26.6617 38.0134 26.9999 38H78.9999C79.3411 37.9973 79.6793 37.9364 79.9999 37.82V44.82C80.0136 44.9635 79.9985 45.1083 79.9553 45.2458C79.9122 45.3834 79.8419 45.5109 79.7487 45.6209C79.6556 45.7308 79.5413 45.821 79.4127 45.8861C79.2841 45.9513 79.1437 45.99 78.9999 46Z" fill="black"/>
<path d="M31 34H75C75.7957 34 76.5587 33.6839 77.1213 33.1213C77.6839 32.5587 78 31.7956 78 31V13C78 12.2044 77.6839 11.4413 77.1213 10.8787C76.5587 10.3161 75.7957 10 75 10H31C30.2044 10 29.4413 10.3161 28.8787 10.8787C28.3161 11.4413 28 12.2044 28 13V31C28 31.7956 28.3161 32.5587 28.8787 33.1213C29.4413 33.6839 30.2044 34 31 34ZM30 13C30 12.7348 30.1054 12.4804 30.2929 12.2929C30.4804 12.1054 30.7348 12 31 12H75C75.2652 12 75.5196 12.1054 75.7071 12.2929C75.8946 12.4804 76 12.7348 76 13V31C76 31.2652 75.8946 31.5196 75.7071 31.7071C75.5196 31.8946 75.2652 32 75 32H31C30.7348 32 30.4804 31.8946 30.2929 31.7071C30.1054 31.5196 30 31.2652 30 31V13Z" fill="black"/>
<path d="M38 19H68C68.2652 19 68.5196 18.8946 68.7071 18.7071C68.8946 18.5196 69 18.2652 69 18C69 17.7348 68.8946 17.4804 68.7071 17.2929C68.5196 17.1054 68.2652 17 68 17H38C37.7348 17 37.4804 17.1054 37.2929 17.2929C37.1054 17.4804 37 17.7348 37 18C37 18.2652 37.1054 18.5196 37.2929 18.7071C37.4804 18.8946 37.7348 19 38 19Z" fill="black"/>
<path d="M38 23H68C68.2652 23 68.5196 22.8946 68.7071 22.7071C68.8946 22.5196 69 22.2652 69 22C69 21.7348 68.8946 21.4804 68.7071 21.2929C68.5196 21.1054 68.2652 21 68 21H38C37.7348 21 37.4804 21.1054 37.2929 21.2929C37.1054 21.4804 37 21.7348 37 22C37 22.2652 37.1054 22.5196 37.2929 22.7071C37.4804 22.8946 37.7348 23 38 23Z" fill="black"/>
<path d="M38 27H68C68.2652 27 68.5196 26.8946 68.7071 26.7071C68.8946 26.5196 69 26.2652 69 26C69 25.7348 68.8946 25.4804 68.7071 25.2929C68.5196 25.1054 68.2652 25 68 25H38C37.7348 25 37.4804 25.1054 37.2929 25.2929C37.1054 25.4804 37 25.7348 37 26C37 26.2652 37.1054 26.5196 37.2929 26.7071C37.4804 26.8946 37.7348 27 38 27Z" fill="black"/>
<path d="M55 40H51C50.4696 40 49.9609 40.2107 49.5858 40.5858C49.2107 40.9609 49 41.4696 49 42C49 42.5304 49.2107 43.0391 49.5858 43.4142C49.9609 43.7893 50.4696 44 51 44H55C55.5304 44 56.0391 43.7893 56.4142 43.4142C56.7893 43.0391 57 42.5304 57 42C57 41.4696 56.7893 40.9609 56.4142 40.5858C56.0391 40.2107 55.5304 40 55 40Z" fill="black"/>
<path d="M37.6746 54.8457C37.7291 54.2486 37.7836 53.6514 37.7836 53C37.7836 52.3486 37.7291 51.7514 37.6201 51.1543L41.6544 48.0057C42.036 47.7343 42.0905 47.1914 41.8725 46.8114L38.0562 40.2429C37.8381 39.8086 37.293 39.7 36.9113 39.8086L32.2228 41.7086C31.2415 40.9486 30.1512 40.3514 29.0063 39.8629L28.2975 34.8143C28.2565 34.5852 28.1355 34.378 27.956 34.229C27.7765 34.08 27.5499 33.9989 27.3162 34H19.6838C19.1931 34 18.8115 34.3257 18.757 34.8143L18.0482 39.8629C16.9034 40.3514 15.813 41.0029 14.8317 41.7086L10.0887 39.8086C9.65252 39.6457 9.16186 39.8086 8.94379 40.2429L5.12755 46.8114C4.90948 47.2457 4.964 47.7343 5.34562 48.0057L9.37993 51.1543C9.16315 52.3753 9.16315 53.6247 9.37993 54.8457L5.34562 57.9943C4.964 58.2657 4.90948 58.8086 5.12755 59.1886L8.94379 65.7571C9.16186 66.1914 9.70704 66.3 10.0887 66.1914L14.8317 64.2914C15.813 65.0514 16.9034 65.6486 18.0482 66.1371L18.757 71.1857C18.8115 71.6743 19.1931 72 19.6838 72H27.3162C27.8069 72 28.1885 71.6743 28.243 71.1857L28.9518 66.1371C30.0966 65.6486 31.187 64.9971 32.1683 64.2914L36.9113 66.1914C37.3475 66.3543 37.8381 66.1914 38.0562 65.7571L41.8725 59.1886C42.0905 58.7543 42.036 58.2657 41.6544 57.9943L37.6746 54.8457ZM23.5 59.7857C21.6926 59.7857 19.9593 59.0708 18.6813 57.7982C17.4033 56.5257 16.6853 54.7997 16.6853 53C16.6853 51.2003 17.4033 49.4743 18.6813 48.2018C19.9593 46.9292 21.6926 46.2143 23.5 46.2143C25.3074 46.2143 27.0407 46.9292 28.3187 48.2018C29.5967 49.4743 30.3147 51.2003 30.3147 53C30.3147 54.7997 29.5967 56.5257 28.3187 57.7982C27.0407 59.0708 25.3074 59.7857 23.5 59.7857Z" fill="white" stroke="white" stroke-width="9"/>
<path d="M37.6746 54.8457C37.7291 54.2486 37.7836 53.6514 37.7836 53C37.7836 52.3486 37.7291 51.7514 37.6201 51.1543L41.6544 48.0057C42.036 47.7343 42.0905 47.1914 41.8725 46.8114L38.0562 40.2429C37.8381 39.8086 37.293 39.7 36.9113 39.8086L32.2228 41.7086C31.2415 40.9486 30.1512 40.3514 29.0063 39.8629L28.2975 34.8143C28.2565 34.5852 28.1355 34.378 27.956 34.229C27.7765 34.08 27.5499 33.9989 27.3162 34H19.6838C19.1931 34 18.8115 34.3257 18.757 34.8143L18.0482 39.8629C16.9034 40.3514 15.813 41.0029 14.8317 41.7086L10.0887 39.8086C9.65252 39.6457 9.16186 39.8086 8.94379 40.2429L5.12755 46.8114C4.90948 47.2457 4.964 47.7343 5.34562 48.0057L9.37993 51.1543C9.16315 52.3753 9.16315 53.6247 9.37993 54.8457L5.34562 57.9943C4.964 58.2657 4.90948 58.8086 5.12755 59.1886L8.94379 65.7571C9.16186 66.1914 9.70704 66.3 10.0887 66.1914L14.8317 64.2914C15.813 65.0514 16.9034 65.6486 18.0482 66.1371L18.757 71.1857C18.8115 71.6743 19.1931 72 19.6838 72H27.3162C27.8069 72 28.1885 71.6743 28.243 71.1857L28.9518 66.1371C30.0966 65.6486 31.187 64.9971 32.1683 64.2914L36.9113 66.1914C37.3475 66.3543 37.8381 66.1914 38.0562 65.7571L41.8725 59.1886C42.0905 58.7543 42.036 58.2657 41.6544 57.9943L37.6746 54.8457ZM23.5 59.7857C21.6926 59.7857 19.9593 59.0708 18.6813 57.7982C17.4033 56.5257 16.6853 54.7997 16.6853 53C16.6853 51.2003 17.4033 49.4743 18.6813 48.2018C19.9593 46.9292 21.6926 46.2143 23.5 46.2143C25.3074 46.2143 27.0407 46.9292 28.3187 48.2018C29.5967 49.4743 30.3147 51.2003 30.3147 53C30.3147 54.7997 29.5967 56.5257 28.3187 57.7982C27.0407 59.0708 25.3074 59.7857 23.5 59.7857Z" fill="white" stroke="black" stroke-width="4"/>
</svg>
