<svg width="75" height="71" viewBox="0 0 75 71" fill="none" xmlns="http://www.w3.org/2000/svg">
<g clip-path="url(#clip0)">
<path d="M32.8449 25.784L29.9773 14.586L50.333 8.82491L53.4092 20.0301L32.8449 25.784Z" stroke="black" stroke-width="4"/>
<path d="M23.4897 39.4523L23.4927 39.4656L27.4441 38.2646L17.8853 0.915604H1.52649V6.1844H13.3618L21.7 39.9981L23.4897 39.4523Z" stroke="black" stroke-width="2"/>
<path d="M71.9117 42.9787L46.697 50.0343L48.6456 56.1847L73.4735 48.9101L71.9117 42.9787Z" stroke="black" stroke-width="2"/>
<path d="M40.1927 49.8287L41.9868 48.0241L38.7339 44.7507L36.9412 46.5568C35.8986 45.8616 34.7339 45.3439 33.4883 45.0184V42.3219H27.7147V45.0184C26.4427 45.3498 25.2515 45.8823 24.1912 46.5997L22.4706 44.8676L19.2177 48.1395L20.9677 49.8997C20.2986 50.9292 19.7971 52.0785 19.4809 53.3003H16.8015V59.1045H19.4809C19.8045 60.3574 20.3192 61.5319 21.0118 62.5821L19.2177 64.3852L22.4706 67.6556L24.2647 65.851C25.3103 66.5492 26.4795 67.0684 27.728 67.3923V70.0844H33.4794V67.3923C34.7 67.0772 35.8427 66.5684 36.8706 65.8969L38.7353 67.771L41.9883 64.502L40.1515 62.6516C40.8692 61.5792 41.4015 60.3737 41.728 59.0883H44.4044V53.3225H41.728C41.4059 52.0637 40.8897 50.8833 40.1927 49.8287V49.8287ZM30.603 60.9624C27.9897 60.9624 25.8721 58.8324 25.8721 56.2024C25.8721 53.5754 27.9897 51.4439 30.603 51.4439C33.2147 51.4439 35.3339 53.5739 35.3339 56.2024C35.3339 58.8324 33.2147 60.9624 30.603 60.9624V60.9624Z" stroke="black" stroke-width="2"/>
<path d="M65.3104 16.977L70.1405 34.7238L45.5551 41.5541C45.3497 41.1527 45.0448 40.6157 44.6591 40.1369L44.6255 40.0951L44.5901 40.0557C44.5894 40.055 44.5881 40.0535 44.586 40.051L44.5611 40.022C44.5414 39.999 44.5068 39.9587 44.4639 39.9118C44.4287 39.8679 44.3849 39.8144 44.3323 39.7528C44.2054 39.6041 44.0267 39.4069 43.7961 39.1805C43.3365 38.7295 42.6601 38.1528 41.765 37.617C40.287 36.7323 38.2328 35.9746 35.6515 36.0581L32.9434 25.9009L65.3104 16.977Z" stroke="black" stroke-width="4"/>
</g>
<defs>
<clipPath id="clip0">
<rect width="75" height="71" fill="white"/>
</clipPath>
</defs>
</svg>
