<svg width="80" height="67" viewBox="0 0 80 67" fill="none" xmlns="http://www.w3.org/2000/svg">
<path d="M75.5083 17.37C75.5424 16.9942 75.5766 16.6183 75.5766 16.2083C75.5766 15.7983 75.5424 15.4225 75.4741 15.0467L78.0024 13.065C78.2416 12.8942 78.2758 12.5525 78.1391 12.3133L75.7474 8.17917C75.6108 7.90584 75.2691 7.83751 75.0299 7.90584L72.0916 9.10167C71.4766 8.62334 70.7933 8.24751 70.0758 7.94001L69.6316 4.76251C69.6058 4.61834 69.53 4.48788 69.4175 4.39413C69.305 4.30037 69.163 4.24933 69.0166 4.25001H64.2333C63.9258 4.25001 63.6866 4.45501 63.6524 4.76251L63.2083 7.94001C62.4908 8.24751 61.8074 8.65751 61.1924 9.10167L58.2199 7.90584C57.9466 7.80334 57.6391 7.90584 57.5024 8.17917L55.1108 12.3133C54.9741 12.5867 55.0083 12.8942 55.2474 13.065L57.7758 15.0467C57.6399 15.8152 57.6399 16.6015 57.7758 17.37L55.2474 19.3517C55.0083 19.5225 54.9741 19.8642 55.1108 20.1033L57.5024 24.2375C57.6391 24.5108 57.9808 24.5792 58.2199 24.5108L61.1924 23.315C61.8074 23.7933 62.4908 24.1692 63.2083 24.4767L63.6524 27.6542C63.6866 27.9617 63.9258 28.1667 64.2333 28.1667H69.0166C69.3241 28.1667 69.5633 27.9617 69.5974 27.6542L70.0416 24.4767C70.7591 24.1692 71.4424 23.7592 72.0574 23.315L75.0299 24.5108C75.3033 24.6133 75.6108 24.5108 75.7474 24.2375L78.1391 20.1033C78.2758 19.83 78.2416 19.5225 78.0024 19.3517L75.5083 17.37ZM66.6249 20.4792C65.4922 20.4792 64.4059 20.0292 63.605 19.2283C62.804 18.4273 62.3541 17.341 62.3541 16.2083C62.3541 15.0756 62.804 13.9893 63.605 13.1884C64.4059 12.3875 65.4922 11.9375 66.6249 11.9375C67.7576 11.9375 68.8439 12.3875 69.6449 13.1884C70.4458 13.9893 70.8958 15.0756 70.8958 16.2083C70.8958 17.341 70.4458 18.4273 69.6449 19.2283C68.8439 20.0292 67.7576 20.4792 66.6249 20.4792ZM68.0599 33.9067L66.3516 30.9342C66.2491 30.7292 66.0099 30.6608 65.8391 30.7292L63.7208 31.5833C63.2766 31.2417 62.7983 30.9683 62.2858 30.7633L61.9783 28.5083C61.9432 28.4092 61.8785 28.3232 61.7929 28.2621C61.7074 28.201 61.6051 28.1677 61.4999 28.1667H58.0833C57.8783 28.1667 57.7074 28.3033 57.6733 28.5425L57.3658 30.7975C56.8533 31.0025 56.3749 31.31 55.9308 31.6175L53.8124 30.7633C53.6074 30.695 53.4024 30.7633 53.2999 30.9683L51.5916 33.9408C51.4891 34.1458 51.5233 34.3508 51.6941 34.4875L53.5049 35.8883C53.4708 36.1617 53.4366 36.435 53.4366 36.7083C53.4366 36.9817 53.4708 37.2892 53.5049 37.5283L51.6941 38.9292C51.5233 39.0658 51.4891 39.305 51.5916 39.4758L53.2999 42.4483C53.4024 42.6533 53.6416 42.7217 53.8124 42.6533L55.9308 41.7992C56.3749 42.1408 56.8533 42.4142 57.3658 42.6192L57.6733 44.8742C57.7074 45.1133 57.8783 45.25 58.0833 45.25H61.4999C61.7049 45.25 61.9099 45.1133 61.9099 44.8742L62.2174 42.6192C62.7299 42.4142 63.2083 42.1067 63.6524 41.7992L65.7708 42.6533C65.9758 42.7217 66.1808 42.6533 66.2833 42.4483L67.9916 39.4758C68.0941 39.2708 68.0599 39.0658 67.8891 38.9292L66.1124 37.5283C66.1466 37.255 66.1808 36.9817 66.1808 36.7083C66.1808 36.435 66.1466 36.1275 66.1124 35.8883L67.9233 34.4875C68.0941 34.3508 68.1283 34.1117 68.0599 33.9067ZM59.7916 39.5442C58.2199 39.5442 56.9558 38.2458 56.9558 36.7083C56.9558 35.1367 58.2541 33.8725 59.7916 33.8725C61.3291 33.8725 62.6274 35.1708 62.6274 36.7083C62.6274 38.28 61.3633 39.5442 59.7916 39.5442Z" stroke="black" stroke-width="2"/>
<path d="M2 57.9412C2 48.5529 20.9881 43.8235 30.5 43.8235C40.0119 43.8235 59 48.5529 59 57.9412V65H2V57.9412Z" fill="white"/>
<path d="M45.7119 19.6471H15.3237C14.3619 19.6471 13.5781 18.8706 13.5781 17.9529V17.8471C13.5781 17.6199 13.6233 17.3951 13.711 17.1852C13.7987 16.9754 13.9273 16.7848 14.0894 16.6242C14.2515 16.4636 14.4439 16.3362 14.6557 16.2493C14.8675 16.1624 15.0945 16.1176 15.3237 16.1176H16.25C16.25 10.8941 19.1356 6.41177 23.375 3.94118L26.9375 2.49412C28.0775 2.21176 29.2531 2 30.5 2C31.7469 2 32.9225 2.21176 34.0625 2.49412L37.625 3.94118C41.8644 6.41177 44.75 10.8941 44.75 16.1176H45.7119C46.1748 16.1176 46.6188 16.2999 46.9462 16.6242C47.2736 16.9485 47.4575 17.3884 47.4575 17.8471V17.9176C47.4575 18.8706 46.6738 19.6471 45.7119 19.6471Z" fill="white"/>
<path d="M44.2512 26.1765C42.6481 32.2471 37.1263 36.7647 30.5 36.7647C23.8738 36.7647 18.3519 32.2471 16.7487 26.1765H44.2512Z" fill="white"/>
<path d="M2 57.9412C2 48.5529 20.9881 43.8235 30.5 43.8235C40.0119 43.8235 59 48.5529 59 57.9412V65H2V57.9412Z" stroke="black" stroke-width="4"/>
<path d="M45.7119 19.6471H15.3237C14.3619 19.6471 13.5781 18.8706 13.5781 17.9529V17.8471C13.5781 17.6199 13.6233 17.3951 13.711 17.1852C13.7987 16.9754 13.9273 16.7848 14.0894 16.6242C14.2515 16.4636 14.4439 16.3362 14.6557 16.2493C14.8675 16.1624 15.0945 16.1176 15.3237 16.1176H16.25C16.25 10.8941 19.1356 6.41177 23.375 3.94118L26.9375 2.49412C28.0775 2.21176 29.2531 2 30.5 2C31.7469 2 32.9225 2.21176 34.0625 2.49412L37.625 3.94118C41.8644 6.41177 44.75 10.8941 44.75 16.1176H45.7119C46.1748 16.1176 46.6188 16.2999 46.9462 16.6242C47.2736 16.9485 47.4575 17.3884 47.4575 17.8471V17.9176C47.4575 18.8706 46.6738 19.6471 45.7119 19.6471Z" stroke="black" stroke-width="4"/>
<path d="M44.2512 26.1765C42.6481 32.2471 37.1263 36.7647 30.5 36.7647C23.8738 36.7647 18.3519 32.2471 16.7487 26.1765H44.2512Z" stroke="black" stroke-width="4"/>
<path d="M26 3V10.5" stroke="black" stroke-width="4" stroke-linecap="round"/>
<path d="M35 3V10.5" stroke="black" stroke-width="4" stroke-linecap="round"/>
</svg>
