<svg width="83" height="67" viewBox="0 0 83 67" fill="none" xmlns="http://www.w3.org/2000/svg">
<path d="M14.5668 47.6717C16.2653 48.2345 18.0766 48.6042 20 48.6042C21.9233 48.6042 23.7346 48.2345 25.432 47.6717L14.5668 47.6717ZM14.5668 47.6717C14.3899 47.6131 14.1992 47.5833 14.0001 47.5833C6.81626 47.5833 0.961721 53.5544 1.00019 60.9489C1.01486 63.759 3.27611 66 6.00014 66H33.9999C36.7239 66 38.9851 63.759 38.9998 60.9489C39.0383 53.5544 33.1837 47.5833 25.9999 47.5833M14.5668 47.6717L25.9999 47.5833M25.9999 47.5833C25.8004 47.5833 25.6086 47.6132 25.4322 47.6716L25.9999 47.5833ZM30.9999 30.25C30.9999 36.4828 26.0558 41.5 20 41.5C13.9442 41.5 9.00012 36.4828 9.00012 30.25C9.00012 24.0172 13.9442 19 20 19C26.0558 19 30.9999 24.0172 30.9999 30.25Z" stroke="black" stroke-width="2"/>
<path d="M44 17H64.5" stroke="black" stroke-width="4"/>
<path d="M44 26H64.5" stroke="black" stroke-width="4"/>
<path d="M44 35H64.5" stroke="black" stroke-width="4"/>
<path d="M16 15.2692V2H81V48H39.8028" stroke="black" stroke-width="4"/>
</svg>
