<svg width="77" height="77" viewBox="0 0 77 77" fill="none" xmlns="http://www.w3.org/2000/svg">
<path fill-rule="evenodd" clip-rule="evenodd" d="M38.4973 22.3956C47.4244 22.3956 54.6581 29.6045 54.6581 38.4999C54.6581 47.3906 47.4244 54.5997 38.4973 54.5997C29.5756 54.5997 22.3418 47.3908 22.3418 38.4999C22.3418 29.6045 29.5758 22.3956 38.4973 22.3956ZM15.6242 38.4999C15.6242 37.5208 16.4189 36.7292 17.4011 36.7292C18.3839 36.7292 19.1779 37.5208 19.1779 38.4999C19.1779 39.479 18.3839 40.2706 17.4011 40.2706C16.4189 40.2706 15.6242 39.479 15.6242 38.4999ZM18.6893 49.8967C18.2007 49.049 18.4918 47.967 19.3384 47.4748C20.189 46.9879 21.2749 47.2783 21.7683 48.1261C22.2569 48.9737 21.9658 50.0559 21.115 50.5431C20.2639 51.0301 19.1779 50.7447 18.6893 49.8967ZM27.0609 58.2395C26.2102 57.7477 25.919 56.6655 26.4125 55.8225C26.9011 54.9745 27.9871 54.6841 28.8377 55.1712C29.689 55.663 29.9801 56.745 29.4868 57.5883C28.998 58.4362 27.9122 58.7266 27.0609 58.2395ZM38.4973 61.2934C37.5152 61.2934 36.7205 60.5018 36.7205 59.5229C36.7205 58.544 37.515 57.7524 38.4973 57.7524C39.48 57.7524 40.274 58.544 40.274 59.5229C40.274 60.5018 39.48 61.2934 38.4973 61.2934ZM49.9338 58.2395C49.0831 58.7266 47.9973 58.4362 47.5085 57.5883C47.015 56.745 47.3063 55.6628 48.1567 55.1712C49.008 54.6841 50.094 54.9743 50.5826 55.8225C51.0763 56.6655 50.7852 57.7475 49.9338 58.2395ZM58.306 49.8967C57.8169 50.7447 56.7309 51.0301 55.8803 50.5431C55.0296 50.0559 54.7384 48.9737 55.227 48.1261C55.7205 47.2785 56.8063 46.9879 57.6571 47.4748C58.5082 47.967 58.7995 49.049 58.306 49.8967ZM61.3709 38.4999C61.3709 39.479 60.5764 40.2706 59.5935 40.2706C58.6114 40.2706 57.8169 39.479 57.8169 38.4999C57.8169 37.5208 58.6114 36.7292 59.5935 36.7292C60.5764 36.7292 61.3709 37.5208 61.3709 38.4999ZM58.306 27.1032C58.7995 27.9508 58.5082 29.0329 57.6571 29.5202C56.8065 30.012 55.7205 29.7215 55.227 28.8737C54.7384 28.0262 55.0295 26.944 55.8803 26.4518C56.7309 25.9649 57.8169 26.2552 58.306 27.1032ZM49.9338 18.7603C50.7851 19.2474 51.0763 20.3296 50.5828 21.1773C50.0942 22.0253 49.0082 22.3158 48.1569 21.8236C47.3065 21.3368 47.015 20.2546 47.5087 19.4066C47.9973 18.559 49.0831 18.2687 49.9338 18.7603ZM38.4973 15.7064C39.48 15.7064 40.274 16.498 40.274 17.4769C40.274 18.4558 39.4798 19.2474 38.4973 19.2474C37.5152 19.2474 36.7205 18.4558 36.7205 17.4769C36.7205 16.498 37.5152 15.7064 38.4973 15.7064ZM27.0609 18.7603C27.9122 18.2685 28.998 18.559 29.4866 19.4066C29.9801 20.2546 29.6888 21.3368 28.8375 21.8236C27.9869 22.3156 26.9009 22.0253 26.4123 21.1773C25.919 20.3296 26.2102 19.2474 27.0609 18.7603ZM18.6893 27.1032C19.1779 26.2552 20.2639 25.9649 21.115 26.4518C21.9657 26.9438 22.2569 28.026 21.7683 28.8737C21.2748 29.7215 20.189 30.012 19.3384 29.5202C18.4918 29.0329 18.2005 27.9508 18.6893 27.1032ZM34.4221 28.6397L40.5045 25.3372C40.7821 25.187 41.1347 25.2903 41.2849 25.5665C41.3598 25.7116 41.3739 25.8712 41.3274 26.0163L40.6642 28.4194C43.6071 29.3653 45.9527 31.3658 47.3817 33.8717C48.895 36.523 49.3932 39.7552 48.5189 42.9311C48.4347 43.2356 48.1198 43.4137 47.809 43.334C47.5038 43.2497 47.3251 42.9357 47.4101 42.6266C48.1994 39.7597 47.7484 36.8369 46.3801 34.4385C45.0925 32.1854 42.9957 30.3866 40.3588 29.5248L39.8935 31.211C42.0648 31.9467 43.7949 33.4361 44.8572 35.3004C46.0038 37.3099 46.3799 39.7599 45.7174 42.1628C45.6331 42.4671 45.3176 42.6499 45.0124 42.5655C44.707 42.4812 44.5236 42.1677 44.6079 41.863C45.1863 39.7599 44.8572 37.624 43.8557 35.8673C42.9349 34.256 41.4493 32.9678 39.5876 32.3211L38.7746 35.2677C38.6898 35.5721 38.375 35.7548 38.0696 35.6705C37.9193 35.6283 37.7967 35.5344 37.7218 35.4083L34.1729 29.4498C34.0125 29.1737 34.1022 28.8221 34.3745 28.6628L34.4221 28.6397ZM42.5778 48.3602L36.4907 51.6627C36.213 51.8126 35.8651 51.7095 35.7101 51.4333C35.6347 51.2882 35.6206 51.1287 35.6678 50.9834L36.3309 48.5805C33.388 47.6297 31.0471 45.634 29.6134 43.1281C28.1001 40.4768 27.6014 37.2446 28.4757 34.0687C28.5605 33.7594 28.8802 33.5816 29.1856 33.6658C29.4915 33.7502 29.6702 34.0642 29.5852 34.3685C28.7959 37.24 29.2467 40.1628 30.6144 42.5612C31.9024 44.8143 33.9993 46.6084 36.6363 47.4748L37.1014 45.7837C34.9297 45.0485 33.2 43.5589 32.1378 41.6943C30.9906 39.6849 30.6146 37.2398 31.2777 34.8367C31.362 34.5275 31.6773 34.3496 31.9827 34.434C32.2881 34.5135 32.4715 34.8318 32.3872 35.1365C31.8089 37.2348 32.1378 39.3755 33.1389 41.1276C34.0602 42.7388 35.5458 44.0319 37.4075 44.6784L38.2205 41.7272C38.3046 41.4226 38.6201 41.2447 38.9302 41.329C39.0807 41.3667 39.1979 41.4651 39.2734 41.5865L42.8222 47.5496C42.9866 47.8213 42.8929 48.1772 42.6201 48.3367L42.5778 48.3602ZM32.8286 75.4213C32.1283 75.2807 31.8742 76.4051 32.6595 76.5596L33.8209 76.7188C34.4976 76.85 34.7746 75.7397 33.9571 75.5758L32.8286 75.4213ZM28.3867 74.4704C27.5361 74.3018 27.4323 75.4541 28.0766 75.5807L29.2091 75.876C30.0179 76.0398 30.1729 74.8969 29.4868 74.761L28.3867 74.4704ZM24.0902 72.9856C23.3617 72.6952 22.9619 73.7772 23.6481 74.049C24.0052 74.2035 24.3721 74.3441 24.7339 74.4846C25.0351 74.6018 25.3688 74.4285 25.472 74.1709C25.6035 73.8428 25.4342 73.5244 25.1478 73.4071C24.7907 73.2713 24.4381 73.1352 24.0902 72.9856ZM20.0103 70.9899C19.9159 70.9384 19.761 70.9009 19.6295 70.9243C19.0889 71.0323 18.9668 71.7112 19.4368 71.9925C19.7751 72.1845 20.123 72.3719 20.466 72.5546C21.0915 72.9294 21.6786 71.9409 21.0065 71.538C20.6729 71.36 20.3393 71.1819 20.0103 70.9899ZM16.1979 68.5166C15.596 68.0668 14.9003 68.9898 15.507 69.4396C15.8077 69.6736 16.146 69.9034 16.4661 70.1234C17.1429 70.5311 17.7213 69.627 17.1194 69.1773L16.1979 68.5166ZM12.7151 65.6031C12.2022 65.0925 11.3563 65.8795 11.9206 66.4414L12.7853 67.2333C13.2645 67.7111 14.1487 66.9663 13.5516 66.3713L12.7151 65.6031ZM9.60787 62.2912C9.03893 61.7243 8.27733 62.4412 8.72415 63.0316C8.97292 63.3312 9.22236 63.6264 9.48575 63.9168C10.0824 64.5164 10.8252 63.631 10.3505 63.1531L9.60787 62.2912ZM6.92849 58.6327C6.77345 58.3799 6.43985 58.3051 6.16689 58.436C5.87091 58.614 5.77181 58.9469 5.95994 59.2604C6.16689 59.5837 6.38324 59.9164 6.60429 60.2301C7.05531 60.8297 7.96255 60.2537 7.55336 59.5746L6.92849 58.6327ZM4.70953 54.6792C4.46076 54.0518 3.35598 54.3937 3.67077 55.1806C3.83522 55.5271 4.01378 55.8786 4.1925 56.2251C4.62991 56.9512 5.56553 56.2673 5.21715 55.6911C5.048 55.3587 4.86928 55.0169 4.70953 54.6792ZM2.98946 50.4824C2.68408 49.7139 1.64011 50.2154 1.8988 50.8568L2.289 51.9531C2.58498 52.6888 3.64255 52.2248 3.3748 51.5503L2.98946 50.4824ZM1.80036 46.1121C1.65422 45.3859 0.517029 45.5871 0.667367 46.3508C0.746988 46.7257 0.831815 47.1143 0.925546 47.4892C1.06228 48.1824 2.20418 48.009 2.04443 47.2175L1.80036 46.1121ZM1.1513 41.6243C1.1513 40.9731 0 40.8747 0 41.6944C0.027716 42.0928 0.0700458 42.4909 0.112544 42.8844C0.286398 43.7462 1.38647 43.3807 1.25982 42.753L1.1513 41.6243ZM38.4973 77C38.7182 77 38.9441 76.8549 39.0189 76.6721C39.2068 76.2879 38.9157 75.8477 38.4973 75.8477L37.3601 75.8288C36.5607 75.8288 36.6032 76.9813 37.3272 76.9813L38.4973 77ZM44.1667 1.57366C44.8716 1.71443 45.1251 0.594578 44.3358 0.435388L43.1744 0.280884C43.1321 0.27151 43.0431 0.276197 43.0006 0.285571C42.3898 0.407266 42.3381 1.2834 43.0384 1.42367L44.1667 1.57366ZM48.6133 2.52478C49.4592 2.6982 49.563 1.5457 48.9187 1.41932L47.7855 1.11935C46.9821 0.96033 46.827 2.10312 47.5132 2.23904L48.6133 2.52478ZM52.9049 4.00955C53.6336 4.30014 54.0334 3.22264 53.3465 2.94627C52.9892 2.79646 52.6225 2.65568 52.2606 2.51541C51.9601 2.39338 51.6264 2.56679 51.5231 2.8291C51.3911 3.15719 51.5603 3.47557 51.8475 3.58806C52.2046 3.72381 52.5572 3.86442 52.9049 4.00955ZM56.985 6.0052C57.624 6.38451 58.2119 5.39606 57.5773 5.01692C57.2437 4.81538 56.877 4.62806 56.5293 4.44059C55.9038 4.06596 55.3209 5.05893 55.9888 5.46201C56.3271 5.63978 56.6607 5.81789 56.985 6.0052ZM60.7974 8.47843C61.3986 8.92821 62.0943 8.00989 61.493 7.56028C61.1876 7.32141 60.8486 7.09175 60.5339 6.87179C59.8522 6.46888 59.2787 7.3728 59.8759 7.81773L60.7974 8.47843ZM64.2802 11.3921C64.7925 11.9071 65.6391 11.1204 65.0749 10.5586L64.2102 9.76668C63.7303 9.28911 62.8465 10.029 63.4437 10.6287L64.2802 11.3921ZM67.3876 14.7037C67.9565 15.2707 68.7175 14.5588 68.2713 13.9684C68.0266 13.6686 67.7731 13.3688 67.5143 13.0784C66.9131 12.4835 66.1703 13.3688 66.6495 13.842L67.3876 14.7037ZM70.0715 18.3671C70.4429 18.9853 71.4392 18.4045 71.0488 17.7535C70.8472 17.4301 70.6119 17.074 70.391 16.765C69.94 16.1701 69.0327 16.7463 69.4413 17.421L70.0715 18.3671ZM72.2858 22.3206C72.5345 22.9436 73.6393 22.6015 73.3245 21.8193C73.1601 21.4679 72.9815 21.1167 72.803 20.7747C72.3656 20.0486 71.4299 20.7277 71.7776 21.304C71.9468 21.6412 72.1254 21.9785 72.2858 22.3206ZM74.0058 26.5173C74.3112 27.286 75.3547 26.7799 75.0965 26.143L74.7063 25.0421C74.4103 24.3065 73.3527 24.7704 73.625 25.4446L74.0058 26.5173ZM75.1949 30.8877C75.3406 31.5951 76.4595 31.4358 76.3279 30.6537C76.2476 30.2741 76.1682 29.8857 76.0692 29.5108C75.9328 28.8176 74.7911 28.9863 74.9509 29.7825L75.1949 30.8877ZM75.844 35.3709C75.844 36.0267 77 36.1251 77 35.3005C76.9718 34.9068 76.9253 34.5043 76.8828 34.1109C76.7089 33.2492 75.6088 33.6142 75.7355 34.242L75.844 35.3709ZM38.4973 0C38.2815 0 38.051 0.140275 37.9803 0.323067C37.7876 0.707233 38.0794 1.15216 38.4973 1.15216L39.6397 1.16622C40.4344 1.16622 40.3921 0.0187479 39.6681 0.0187479L38.4973 0ZM3.68975 38.4999V40.9919L13.3117 42.4301C13.5941 44.2385 14.0686 45.9854 14.7123 47.6484L7.10705 53.6866L9.60299 57.9958L18.6607 54.4499C19.7984 55.8503 21.0865 57.1339 22.4919 58.2676L18.9337 67.2943L23.2584 69.7862L29.3174 62.2023C30.9858 62.8441 32.7396 63.3173 34.5534 63.5982L36.0012 73.1871H40.9978L42.441 63.5982C44.2555 63.3173 46.0087 62.8441 47.6777 62.2023L53.7414 69.7862L58.0661 67.2943L54.503 58.2676C55.9134 57.134 57.1965 55.8505 58.3344 54.4499L67.3921 57.9958L69.893 53.6866L62.2823 47.6484C62.9267 45.9854 63.4012 44.2385 63.6836 42.4301L73.3055 40.9874V38.4999V36.0079L63.6836 34.5697C63.4012 32.7614 62.9267 31.0143 62.2823 29.3514L69.893 23.3086L67.3921 18.9992L58.3344 22.5498C57.1967 21.1445 55.9134 19.8656 54.503 18.732L58.0661 9.70541L53.7414 7.21327L47.6777 14.7973C46.0087 14.1555 44.2555 13.6823 42.441 13.4014L40.9978 3.81253H36.0012L34.5534 13.4014C32.7394 13.6823 30.9856 14.1555 29.3174 14.7973L23.2584 7.21327L18.9337 9.70541L22.4919 18.732C21.0865 19.8655 19.7984 21.1492 18.6607 22.5498L9.60316 18.9994L7.10705 23.3087L14.7123 29.3516C14.0686 31.0145 13.5941 32.7615 13.3117 34.5699L3.68975 36.0081V38.4999Z" fill="black"/>
<path d="M30.4999 35C29.9999 36.3333 29.4999 39.6 31.4999 42C33.4999 44.4 36.3333 46 37.5 46.5" stroke="black" stroke-width="3" stroke-linecap="round"/>
<path d="M39 30C40.3333 30.3333 43.4 31.6 45 34C46.6 36.4 46.6667 40.6667 46.5 42.5" stroke="black" stroke-width="3" stroke-linecap="round"/>
<path fill-rule="evenodd" clip-rule="evenodd" d="M38.4974 22.5281C47.3203 22.5281 54.4696 29.6778 54.4696 38.5C54.4696 47.3176 47.3203 54.4674 38.4974 54.4674C29.6798 54.4674 22.5303 47.3178 22.5303 38.5C22.5303 29.6778 29.6799 22.5281 38.4974 22.5281ZM15.8912 38.5C15.8912 37.529 16.6766 36.7439 17.6473 36.7439C18.6187 36.7439 19.4034 37.529 19.4034 38.5C19.4034 39.471 18.6187 40.2561 17.6473 40.2561C16.6766 40.2561 15.8912 39.471 15.8912 38.5ZM18.9205 49.803C18.4375 48.9623 18.7252 47.8892 19.562 47.4011C20.4027 46.9182 21.476 47.2062 21.9635 48.0471C22.4465 48.8876 22.1588 49.9609 21.3179 50.4442C20.4767 50.9271 19.4034 50.6441 18.9205 49.803ZM27.1944 58.0772C26.3537 57.5895 26.0658 56.5162 26.5535 55.6801C27.0365 54.8391 28.1098 54.5511 28.9505 55.0342C29.7918 55.5219 30.0795 56.595 29.592 57.4314C29.1089 58.2723 28.0357 58.5603 27.1944 58.0772ZM38.4974 61.106C37.5267 61.106 36.7413 60.3209 36.7413 59.3501C36.7413 58.3792 37.5265 57.5941 38.4974 57.5941C39.4686 57.5941 40.2533 58.3792 40.2533 59.3501C40.2533 60.3209 39.4686 61.106 38.4974 61.106ZM49.8004 58.0772C48.9597 58.5603 47.8866 58.2723 47.4034 57.4314C46.9157 56.595 47.2036 55.5218 48.0441 55.0342C48.8855 54.5511 49.9588 54.8389 50.4417 55.6801C50.9296 56.5162 50.6419 57.5893 49.8004 58.0772ZM58.0749 49.803C57.5915 50.6441 56.5182 50.9271 55.6775 50.4442C54.8368 49.9609 54.5489 48.8876 55.0319 48.0471C55.5196 47.2064 56.5927 46.9182 57.4336 47.4011C58.2748 47.8892 58.5627 48.9623 58.0749 49.803ZM61.104 38.5C61.104 39.471 60.3188 40.2561 59.3474 40.2561C58.3768 40.2561 57.5915 39.471 57.5915 38.5C57.5915 37.529 58.3768 36.7439 59.3474 36.7439C60.3188 36.7439 61.104 37.529 61.104 38.5ZM58.0749 27.197C58.5627 28.0377 58.2748 29.1108 57.4336 29.5941C56.5929 30.0819 55.5196 29.7938 55.0319 28.9529C54.5489 28.1124 54.8366 27.0391 55.6775 26.551C56.5182 26.0681 57.5915 26.356 58.0749 27.197ZM49.8004 18.9228C50.6417 19.4059 50.9296 20.4792 50.4419 21.3199C49.9589 22.1609 48.8856 22.449 48.0443 21.9609C47.2037 21.4781 46.9157 20.4048 47.4036 19.5638C47.8866 18.7231 48.9597 18.4352 49.8004 18.9228ZM38.4974 15.894C39.4686 15.894 40.2533 16.6791 40.2533 17.6499C40.2533 18.6208 39.4684 19.4059 38.4974 19.4059C37.5267 19.4059 36.7413 18.6208 36.7413 17.6499C36.7413 16.6791 37.5267 15.894 38.4974 15.894ZM27.1944 18.9228C28.0357 18.435 29.1089 18.7231 29.5918 19.5638C30.0795 20.4048 29.7917 21.4781 28.9503 21.9609C28.1096 22.4488 27.0363 22.1609 26.5534 21.3199C26.0658 20.4792 26.3537 19.4059 27.1944 18.9228ZM18.9205 27.197C19.4034 26.356 20.4767 26.0681 21.3179 26.551C22.1586 27.039 22.4465 28.1122 21.9635 28.9529C21.4758 29.7938 20.4027 30.0819 19.562 29.5941C18.7252 29.1108 18.4374 28.0377 18.9205 27.197ZM4.09595 38.5V40.9715L13.6057 42.3979C13.8847 44.1914 14.3537 45.9239 14.9899 47.5733L7.47337 53.5618L9.9402 57.8355L18.8923 54.3188C20.0167 55.7077 21.2897 56.9807 22.6787 58.1051L19.162 67.0575L23.4363 69.529L29.4246 62.0075C31.0735 62.644 32.8069 63.1133 34.5995 63.3919L36.0304 72.9019H40.9687L42.3951 63.3919C44.1884 63.1133 45.9211 62.644 47.5706 62.0075L53.5636 69.529L57.8379 67.0575L54.3163 58.1051C55.7102 56.9809 56.9784 55.7079 58.103 54.3188L67.055 57.8355L69.5267 53.5618L62.0049 47.5733C62.6417 45.9239 63.1107 44.1914 63.3898 42.3979L72.8995 40.967V38.5V36.0285L63.3898 34.6021C63.1107 32.8087 62.6417 31.076 62.0049 29.4268L69.5267 23.4336L67.055 19.1597L58.103 22.681C56.9786 21.2873 55.7102 20.019 54.3163 18.8947L57.8379 9.94233L53.5636 7.47069L47.5706 14.9924C45.9211 14.3559 44.1884 13.8865 42.3951 13.608L40.9687 4.09792H36.0304L34.5995 13.608C32.8067 13.8865 31.0733 14.3559 29.4246 14.9924L23.4363 7.47069L19.162 9.94233L22.6787 18.8947C21.2897 20.0188 20.0167 21.292 18.8923 22.681L9.94036 19.1599L7.47337 23.4338L14.9899 29.4269C14.3537 31.0761 13.8847 32.8088 13.6057 34.6023L4.09595 36.0287V38.5Z" fill="white" stroke="black" stroke-width="2"/>
</svg>
